<svg width="276" height="92" viewBox="0 0 276 92" fill="none" xmlns="http://www.w3.org/2000/svg">
<g clip-path="url(#clip0_117_30)">
<path d="M270.926 14.58C271.584 14.58 272.235 14.3905 272.842 14.0225C273.45 13.6545 274.001 13.1152 274.464 12.4356C274.928 11.756 275.295 10.9496 275.544 10.0627C275.793 9.17582 275.919 8.22597 275.915 7.26783C275.915 6.31313 275.787 5.36761 275.536 4.4854C275.286 3.60319 274.919 2.80161 274.455 2.12653C273.992 1.45146 273.442 0.916153 272.836 0.551255C272.23 0.186357 271.581 -0.000967942 270.926 3.76104e-06C269.599 3.76104e-06 268.326 0.768053 267.388 2.13519C266.45 3.50233 265.922 5.35656 265.922 7.28998C265.922 9.22341 266.45 11.0776 267.388 12.4448C268.326 13.8119 269.599 14.58 270.926 14.58ZM230.155 62.8622H237.243L243.681 44.9955H261.567L267.109 63.1355L274.541 62.8622L256.787 1.88343H249.126L230.155 62.8622ZM0.0849609 62.8622H23.5123C34.0675 62.8622 38.899 51.7611 38.899 44.929C38.899 34.6773 34.7975 31.2649 31.7962 29.8173C33.8698 28.2736 37.0941 25.7993 37.0941 17.0838C37.0941 9.31375 31.7557 1.88343 22.8431 1.88343H0.0849609V62.8622Z" fill="black"/>
<path d="M7.64893 34.02H24.1915C27.8569 34.02 30.3715 37.292 30.3715 43.4741C30.3715 52.0788 26.6554 53.2975 22.99 53.2975H7.64893V34.02Z" fill="white"/>
<path d="M0.277832 77.457H124.695V79.6063H0.277832V77.457ZM0.277832 81.5858H124.695V83.7351H0.277832V81.5858ZM0.277832 85.7219H124.695V87.8713H0.277832V85.7219ZM0.277832 89.8507H124.695V92H0.277832V89.8507ZM137.693 22.6455H182.581C182.23 21.3577 181.825 20.1023 181.369 18.886H138.905C138.449 20.0973 138.043 21.3603 137.693 22.6455ZM136.527 28.1333H183.742C183.526 26.6987 183.248 25.2852 182.91 23.9011H137.364C137.025 25.2851 136.745 26.6985 136.527 28.1333ZM140.598 56.4955H179.676C180.007 55.8311 180.323 55.1513 180.624 54.457H139.65C139.949 55.1513 140.264 55.8308 140.598 56.4955ZM138.499 51.4804H181.77C182.049 50.6606 182.307 49.826 182.545 48.9692H137.719C137.962 49.826 138.221 50.6606 138.499 51.4804ZM136.061 32.5206H184.213C184.153 31.5754 184.067 30.6342 183.955 29.6991H136.319C136.207 30.6342 136.121 31.5754 136.061 32.5206ZM139.397 17.6378H180.878C180.383 16.4415 179.84 15.2896 179.25 14.1885H141.019C140.431 15.2897 139.89 16.4416 139.397 17.6378ZM137.171 46.7756H183.103C183.276 46.0074 183.438 45.2245 183.575 44.4268H136.695C136.837 45.2245 136.994 46.0074 137.171 46.7756ZM135.98 37.063H184.295C184.32 36.0732 184.32 35.0688 184.289 34.0864H135.985C135.955 35.0781 135.954 36.0711 135.98 37.063ZM143.762 61.6657H176.512C177.035 60.9641 177.537 60.2329 178.013 59.4721H142.261C142.738 60.2329 143.24 60.9641 143.762 61.6657ZM136.37 42.2332H183.899C184.021 41.2508 184.127 40.2611 184.193 39.2566H136.071C136.142 40.2685 136.243 41.2508 136.37 42.2332ZM160.137 0.524437C154.83 0.515634 149.668 3.06008 145.455 7.76272H174.814C170.603 3.06014 165.443 0.515602 160.137 0.524437ZM141.906 12.6153H178.368C177.67 11.4491 176.919 10.3511 176.122 9.32855H144.152C143.355 10.3511 142.605 11.4491 141.906 12.6153ZM135.914 80.8472H137.81V91.712H140.264V80.8472H142.145V77.7081H135.914V80.8472ZM142.925 91.712H148.269V88.5655H145.278V86.1651H148.173V83.026H145.278V80.8472H148.269V77.7081H142.925V91.712ZM154.216 80.5813C154.729 80.5897 155.227 80.8292 155.643 81.2669C156.059 81.7046 156.371 82.3191 156.538 83.026H159.113C158.865 81.4176 158.242 79.9836 157.352 78.9662C156.462 77.9488 155.357 77.4105 154.226 77.4422C153.567 77.4265 152.912 77.6025 152.3 77.9598C151.688 78.3172 151.131 78.8488 150.662 79.5235C150.193 80.1982 149.82 81.0024 149.567 81.8892C149.314 82.7759 149.184 83.7274 149.187 84.6879C149.187 88.4769 151.24 91.9779 154.256 91.9779C155.375 91.999 156.465 91.465 157.348 90.4637C158.231 89.4623 158.853 88.0531 159.113 86.4679H156.538C156.386 86.9628 155.762 88.8314 154.226 88.8314C152.629 88.8314 151.64 86.7929 151.64 84.6731C151.645 82.6789 152.568 80.5813 154.216 80.5813ZM165.78 82.9669H162.632V77.7081H160.178V91.712H162.632V86.106H165.78V91.712H168.234V77.7081H165.78V82.9669ZM175.194 86.4679L175.169 86.5048L171.453 77.7081H169.334V91.712H171.686L171.62 83.2107L171.646 83.1959L175.306 91.712H177.44V77.7081H175.088L175.194 86.4679ZM183.438 77.4348C182.441 77.4091 181.461 77.8189 180.625 78.6113C179.79 79.4038 179.136 80.5426 178.748 81.8812C178.493 82.8341 178.365 83.8496 178.373 84.8725C178.373 88.4695 180.401 91.9705 183.428 91.9705C184.751 91.9724 186.02 91.2086 186.957 89.847C187.893 88.4854 188.42 86.6376 188.421 84.71C188.423 82.7825 187.898 80.9331 186.964 79.5688C186.029 78.2044 184.761 77.4368 183.438 77.4348Z" fill="black"/>
<path d="M183.473 88.8315C181.821 88.8315 180.822 86.8299 180.822 84.6731C180.822 82.7011 181.744 80.5813 183.448 80.5813C185.217 80.5813 186.059 82.9079 186.059 84.7322C186.059 86.5196 185.217 88.8315 183.473 88.8315Z" fill="white"/>
<path d="M192.153 77.708H189.694V91.7119H194.997V88.5654H192.153V77.708ZM200.401 77.4347C199.404 77.409 198.425 77.8188 197.589 78.6112C196.753 79.4037 196.099 80.5425 195.712 81.8811C195.456 82.8339 195.329 83.8495 195.336 84.8724C195.336 88.4694 197.364 91.9704 200.391 91.9704C201.714 91.9723 202.983 91.2085 203.92 89.8469C204.856 88.4853 205.383 86.6375 205.385 84.7099C205.386 82.7824 204.862 80.933 203.927 79.5687C202.993 78.2043 201.724 77.4367 200.401 77.4347Z" fill="black"/>
<path d="M200.441 88.8315C198.794 88.8315 197.795 86.8299 197.795 84.6731C197.795 82.7011 198.718 80.5813 200.421 80.5813C202.19 80.5813 203.032 82.9079 203.032 84.7322C203.027 86.5196 202.18 88.8315 200.441 88.8315Z" fill="white"/>
<path d="M210.5 83.7424V86.6008H213.369C213.111 87.9672 212.29 88.8535 211.068 88.8535C209.861 88.8535 208.426 87.5831 208.426 84.6508C208.405 84.1288 208.457 83.6059 208.579 83.1141C208.701 82.6224 208.891 82.1722 209.137 81.7912C209.383 81.4101 209.68 81.1063 210.009 80.8982C210.339 80.6901 210.694 80.5822 211.053 80.5812C212.092 80.5812 212.797 81.4158 213.172 82.3981H215.925C215.397 79.6948 213.42 77.4421 211.118 77.4421C208.284 77.4421 205.973 80.4704 205.973 84.6582C205.973 88.6836 208.173 91.9999 211.078 91.9999C213.74 91.9999 216.208 89.1785 216.208 84.4884C216.208 84.2003 216.208 83.9935 216.198 83.7498L210.5 83.7424ZM216.852 77.708H219.306V91.7119H216.852V77.708ZM220.837 91.7119H226.181V88.5654H223.19V86.165H226.089V83.0259H223.19V80.8471H226.181V77.708H220.837V91.7119ZM232.097 83.6685C230.368 82.5311 230.105 82.3612 230.105 81.5266C230.105 80.8618 230.52 80.4261 230.951 80.4261C231.702 80.4261 231.783 81.3198 231.833 81.7925H234.262C234.28 80.7918 234.056 79.8139 233.628 79.0301C233.005 77.9517 231.975 77.4421 231.027 77.4421C229.415 77.4421 227.661 78.9415 227.661 81.5709C227.661 84.2003 229.339 85.19 230.013 85.5815C231.494 86.49 231.899 86.7189 231.899 87.6422C231.899 87.8203 231.874 87.9965 231.826 88.1606C231.779 88.3247 231.709 88.4735 231.622 88.5984C231.535 88.7233 231.432 88.8219 231.318 88.8885C231.205 88.9551 231.084 88.9884 230.961 88.9864C230.647 88.9864 229.963 88.7058 229.963 87.0734H227.519V87.5314C227.519 89.3336 228.209 91.9851 230.992 91.9851C233.537 91.9851 234.343 89.7324 234.343 87.6865C234.343 86.0468 233.887 84.8355 232.097 83.6685ZM244.224 77.708H241.765V91.7119H247.068V88.5654H244.224V77.708ZM247.874 88.4916H250.12V91.7119H247.874V88.4916ZM253.578 77.708H251.124V91.7119H256.422V88.5654H253.578V77.708ZM257.228 88.4916H259.474V91.7119H257.228V88.4916ZM265.689 80.5812C266.202 80.5895 266.701 80.829 267.116 81.2668C267.532 81.7045 267.845 82.319 268.011 83.0259H270.582C270.333 81.4188 269.712 79.9857 268.822 78.9684C267.933 77.9512 266.83 77.4121 265.699 77.4421C265.04 77.4264 264.385 77.6023 263.773 77.9596C263.161 78.3169 262.603 78.8483 262.134 79.5229C261.664 80.1975 261.291 81.0017 261.037 81.8885C260.784 82.7753 260.654 83.7269 260.655 84.6878C260.655 88.4768 262.708 91.9778 265.725 91.9778C266.844 92.0016 267.935 91.4686 268.818 90.4668C269.701 89.465 270.323 88.0543 270.582 86.4678H268.011C267.854 86.9627 267.23 88.8313 265.699 88.8313C264.102 88.8313 263.114 86.7928 263.114 84.673C263.114 82.6788 264.036 80.5812 265.689 80.5812ZM271.068 88.4916H273.314V91.7119H271.068V88.4916Z" fill="black"/>
<path d="M7.64893 11.4482H22.1687C26.9241 11.4482 28.8962 13.8413 28.8962 18.8786C28.8962 25.7992 25.8899 26.656 23.5933 26.656H7.64893V11.4482Z" fill="white"/>
<path d="M48.3997 1.88354H56.415V36.3023C56.415 44.7593 56.6482 54.4054 68.0805 54.4054C79.5736 54.4054 79.8017 44.7593 79.8017 36.3023V1.88354H88.1516V36.642C88.5927 46.7165 83.3506 63.4606 68.0805 63.4606C51.1577 63.4606 48.2679 46.1552 48.3997 36.642V1.88354ZM96.5319 1.88354H104.659V54.4054H130.104V62.8623H96.5319V1.88354ZM188.725 1.88354H196.609L209.821 48.5852L224.254 1.88354H232.249L213.815 62.8623H205.638L188.725 1.88354Z" fill="black"/>
<path d="M246.146 36.5681L252.787 15.2595L259.783 36.5681H246.146Z" fill="white"/>
<path d="M270.632 7.75531C270.951 7.79224 271.261 7.75531 271.484 8.10245C271.752 8.50868 271.752 9.1882 271.813 9.9268C271.854 10.429 271.945 10.9756 272.016 11.4631H273.187C272.989 10.6876 272.924 9.79385 272.842 8.98139C272.751 8.05075 272.655 7.52635 271.844 7.28999V7.25306C272.63 7.01671 273.04 6.24118 273.04 5.25146C273.04 3.30894 271.925 2.88794 270.845 2.88794H268.944V11.4557H269.861V7.75531H270.632Z" fill="black"/>
<path d="M269.862 6.41849V4.22485H270.967C271.702 4.22485 271.9 4.54984 271.9 5.19242C271.9 5.84977 271.697 6.37418 270.835 6.41111H269.862V6.41849Z" fill="white"/>
</g>
<defs>
<clipPath id="clip0_117_30">
<rect width="276" height="92" fill="white"/>
</clipPath>
</defs>
</svg>
