<svg width="156" height="44" viewBox="0 0 156 44" fill="none" xmlns="http://www.w3.org/2000/svg">
<path d="M81.2188 12.2389H76.7007L74.1525 15.955H78.6683L81.2188 12.2389ZM92.9391 22.0167C90.5724 22.1928 86.3907 24.0971 84.1131 28.2578C81.8356 32.4186 81.8273 34.9871 81.8273 34.9871C81.8273 34.9871 83.0284 33.8028 84.8698 32.5627C86.7112 31.3226 88.0816 30.8821 88.0816 30.8821C88.0816 30.8821 88.4233 29.3544 89.2737 27.7568C90.1007 26.2026 91.4129 24.5845 93.0366 24.2174C96.3278 23.4723 94.7518 28.8751 92.3344 32.3982C91.035 34.2916 86.4262 39.7332 82.4584 39.7332C78.4907 39.7332 77.7249 36.2924 78.5617 33.0753C79.3978 29.8589 80.5551 25.7722 86.3438 18.3468C92.1325 10.9213 98.3983 6.51922 102.025 4.66932C105.75 2.77046 107.268 3.60261 107.268 3.60261C107.268 3.60261 102.513 6.23708 99.8073 9.4066C97.2206 12.4361 95.677 15.8449 96.8774 17.5153C98.0203 19.1069 102.049 19.1368 106.486 13.3756C110.865 7.68858 109.759 4.30695 109.759 4.30695C109.759 4.30695 110.288 4.15194 110.643 4.10911C112.779 3.85348 114.489 4.35998 117.138 5.58169C119.913 6.86187 122.575 8.91505 126.223 10.595C127.322 9.51265 128.544 8.36301 129.83 7.24123C124.912 5.08811 121.178 2.01921 116.355 1.72483C112.157 1.4692 108.846 2.84525 108.846 2.84525C108.846 2.84525 107.566 1.2768 103.616 1.78874C99.6652 2.30136 87.4943 6.87819 77.1391 21.793C67.7764 35.2781 72.1879 43.0061 78.9178 42.9177C86.213 42.8211 93.153 35.5242 95.5016 29.5067C97.8502 23.4893 95.0745 21.8583 92.9391 22.0167ZM107.261 9.48614C106.034 12.1743 104.229 14.0528 102.453 15.4873C100.175 17.3277 98.9244 17.2658 98.3831 16.896C96.9696 15.9278 98.8662 12.277 102.158 9.01228C105.437 5.76049 108.259 4.74886 108.259 4.74886C108.259 4.78693 108.729 6.26291 107.261 9.48614ZM147.885 5.56605C144.547 7.49754 139.919 9.24683 135.476 8.86135C134.353 9.91037 133.148 11.1192 131.939 12.4415C139.65 13.8094 146.394 9.51333 149.984 5.85296C152.224 3.57066 153.33 1.53311 153.33 1.53311C153.33 1.53311 151.192 3.65292 147.885 5.56605Z" fill="#F40009"/>
<path d="M144.238 22.5136H139.487L138.715 23.5865C138.715 23.5865 137.746 22.0139 136.105 22.0391C133.293 22.0826 130.479 24.0134 127.209 27.3624C124.812 29.816 120.839 35.2787 120.839 35.2787C120.839 35.2787 117.79 39.5041 116.248 39.173C113.619 38.608 118.455 29.8589 118.455 29.8589C118.455 29.8589 120.997 28.4468 124.291 25.9537C126.365 24.3846 128.752 22.2261 130.945 20.2252C132.94 18.4052 135.291 15.9339 137.525 13.2267C136.953 13.3083 136.367 13.3634 135.769 13.3899C133.765 15.7667 131.626 17.894 129.806 19.5848C127.098 22.1016 124.606 24.1609 122.796 25.4744C121.061 26.7322 119.948 27.2985 119.948 27.2985C119.948 27.2985 123.258 21.1859 128.774 14.4321C134.289 7.67905 142.013 1.40529 141.407 4.38172C141.234 5.23631 140.644 6.4621 139.752 7.91701C140.38 7.79939 140.989 7.65254 141.577 7.48529C142.906 5.01807 143.359 2.98461 142.367 2.3972C138.32 1.0848e-05 128.026 9.9192 122.865 15.6804C117.706 21.4415 113.036 30.2457 113.036 30.2457C113.036 30.2457 112.228 30.5503 111.336 30.7026C110.772 30.7991 110.532 30.778 110.44 30.7454C110.394 30.7284 110.388 30.6999 110.388 30.6999C110.388 30.6999 114.928 23.0677 110.28 22.0554C105.795 21.0791 98.0248 28.5413 95.2619 33.732C93.3661 37.2932 92.2965 41.7762 95.5476 42.8436C99.0687 44 105.049 38.2185 106.455 36.5385C107.861 34.8579 109.617 32.0637 109.617 32.0637C109.617 32.0637 110.475 32.0229 110.945 31.961C111.843 31.842 112.263 31.7428 112.263 31.7428C112.263 31.7428 111.681 33.1141 111.051 34.8525C109.877 38.094 108.818 42.7321 113.045 42.9503C115.737 43.0883 119.688 38.7148 119.688 38.7148C119.688 38.7148 118.625 42.6036 122.119 42.9503C124.699 43.2059 128.454 39.621 128.454 39.621C128.454 39.621 127.636 42.7096 130.251 42.9816C132.49 43.2148 135.669 40.8536 138.275 38.2559C141.121 35.4195 143.304 32.3132 143.304 32.3132H141.65C141.65 32.3132 137.987 37.3129 135.416 38.6509C133.304 39.7495 134.028 37.9893 134.668 37.0668C135.374 36.049 144.236 22.5136 144.236 22.5143L144.238 22.5136ZM108.041 31.9304C107.976 32.0643 106.787 33.9251 105.515 35.3882C104.145 36.9648 101.636 39.3375 100.128 38.8358C97.77 38.0512 100.364 33.4316 102.061 31.1907C103.757 28.9499 103.95 28.7983 103.997 28.7398C104.045 28.6814 104.092 28.6276 104.134 28.697C104.176 28.7663 104.715 29.6869 105.781 30.4857C106.851 31.2879 107.881 31.7115 107.964 31.738C108.047 31.7645 108.107 31.7965 108.041 31.9297V31.9304ZM109.102 30.2654C108.953 30.4884 108.846 30.4993 108.537 30.4252C107.993 30.2926 105.738 29.3551 105.755 27.2754C105.771 25.2487 108.948 23.2635 110.193 24.112C111.356 24.9034 110.8 26.9266 110.362 27.9587C109.924 28.99 109.199 30.1193 109.102 30.2654ZM130.685 35.2787C130.057 36.0524 129.533 36.7513 129.059 37.2422C128.048 38.2926 127.388 38.7814 126.8 38.9106C126.504 38.9751 126.136 38.9595 125.893 38.8269C125.03 38.3544 125.634 36.5147 127.137 34.0414C128.512 31.7808 130.101 29.5189 132.713 26.9151C135.335 24.301 136.338 24.1752 137.072 24.2051C137.69 24.2289 137.777 24.8129 137.777 24.8129C137.777 24.8129 137.733 24.9482 137.635 25.1012C136.77 26.4507 132.409 33.1514 130.684 35.2787H130.685ZM60.6066 38.5489C57.7258 36.9478 54.0302 35.9205 49.7842 35.8872C38.8462 35.8015 26.9369 40.581 18.8706 40.6456C9.35676 40.7204 8.8828 34.1372 9.58807 30.5224C11.1059 22.7346 17.2477 15.3051 21.1965 11.3877C25.1462 7.47034 29.2848 4.43067 32.7257 3.65359C36.1665 2.87651 35.843 5.23019 35.422 5.55176C34.9873 5.55992 34.1536 5.64423 33.6804 5.93861C32.9396 6.39819 31.9501 7.23986 31.8881 8.57443C31.7815 10.6303 34.7356 10.9907 36.8711 6.68577C38.3277 3.74945 36.0176 1.75677 34.0991 1.56505C31.4678 1.30127 27.4464 2.1239 22.6464 4.89842C14.2921 9.7268 3.11749 20.4489 2.83252 32.3451C2.67 39.1315 7.59927 42.9503 14.3624 42.9503C21.1255 42.9503 30.3075 39.2253 39.2733 39.1302C44.8247 39.0873 48.4175 40.8373 50.237 43.6873C50.237 43.6873 52.0451 40.9821 56.0719 40.8373C60.0555 40.6932 64.4413 41.6973 68.0417 43.9735C66.8405 42.4125 63.445 40.1262 60.6058 38.5489H60.6066Z" fill="#F40009"/>
<path d="M35.6971 11.8228C31.1118 10.7717 23.4968 17.792 20.288 23.5056C18.309 27.03 17.4412 31.4593 20.9645 32.6116C24.4878 33.764 30.4655 27.9865 31.8715 26.3066C33.2775 24.626 35.5785 21.26 35.5785 21.26C35.5785 21.26 36.2845 21.1376 36.7471 21.0411C37.2097 20.9445 37.9573 20.7528 37.9573 20.7528C37.9573 20.7528 37.0903 22.1424 36.3079 23.5667C35.3804 25.2555 32.8602 30.8773 37.726 32.5634C42.3748 34.174 48.9928 27.4576 49.3405 27.3305C49.3405 27.3305 47.3706 31.9073 50.4305 32.6116C53.7883 33.384 57.468 29.5149 57.468 29.5149C57.468 29.5149 56.6932 32.4192 59.3094 32.6919C63.9945 33.1793 72.2816 22.4015 72.2816 22.4015H70.6261C70.6261 22.4015 66.4089 27.2822 64.3808 28.2904C62.3527 29.2987 63.0822 27.5072 63.6332 26.7064C64.3362 25.6872 73.2952 12.2232 73.2952 12.2232H68.5443L67.9933 13.0071C67.9933 13.0071 67.0144 11.663 65.3778 11.7589C60.6164 12.0383 54.9509 18.8641 52.4594 21.8725C49.9687 24.8816 44.5949 30.6264 41.7656 29.6026C38.6822 28.4862 41.7482 23.3614 43.7763 20.3524C45.9843 17.0768 49.8976 13.8325 51.445 13.8073C53.3491 13.7754 52.6015 15.3275 52.6015 15.3275C52.6015 15.3275 51.1781 15.1677 50.1463 16.3357C49.4161 17.1618 48.8114 18.3678 49.5053 19.0239C50.6263 20.0838 52.086 19.0076 52.9575 17.807C55.675 14.0657 53.687 12.0941 51.5523 11.8065C47.0048 11.1926 42.8155 16.4472 39.6309 18.3998C37.4214 19.7534 36.4984 19.648 36.4984 19.648C36.4984 19.648 40.3316 12.8848 35.6979 11.8221L35.6971 11.8228ZM56.2843 23.9216C57.6593 21.6604 59.5324 19.4774 61.9702 16.7409C64.408 14.0045 65.6213 13.7829 66.3552 13.8128C66.9728 13.8372 67.0605 14.4206 67.0605 14.4206C67.0605 14.4206 61.7639 22.721 59.8423 25.0896C59.2149 25.8633 58.6782 26.5187 58.205 27.0103C57.1936 28.0606 56.4589 28.5685 55.892 28.6949C55.5956 28.7602 55.2283 28.7439 54.9841 28.6106C54.1209 28.1381 54.7793 26.3943 56.2835 23.9216H56.2843ZM33.8051 21.228C33.7393 21.3613 32.2268 23.6109 30.9553 25.074C29.5856 26.6506 27.0541 29.0328 25.546 28.5311C23.1884 27.7465 25.7033 23.1588 27.3995 20.9187C29.0958 18.6779 29.3445 18.3896 29.3929 18.3318C29.4405 18.2727 29.4874 18.219 29.5289 18.289C29.5705 18.3583 30.1102 19.3564 31.2789 20.0281C32.4475 20.7004 33.6456 21.0098 33.7288 21.0363C33.8119 21.0628 33.8716 21.0954 33.8059 21.228H33.8051ZM35.7773 17.7261C35.3388 18.7588 34.9473 19.4094 34.8664 19.563C34.7364 19.8091 34.4106 19.7303 34.4106 19.7303C34.0394 19.7153 31.1541 19.1232 31.1708 17.0435C31.1866 15.0168 34.3637 13.0316 35.6087 13.8801C36.7713 14.6714 36.2157 16.6947 35.7773 17.7261ZM140.663 40.4831C140.386 40.3417 140.077 40.2716 139.738 40.2716C139.399 40.2716 139.09 40.3423 138.813 40.4831C138.535 40.6245 138.318 40.8162 138.158 41.0603C137.999 41.3037 137.919 41.5688 137.919 41.8544C137.919 42.1399 137.999 42.4098 138.158 42.6518C138.317 42.8932 138.535 43.0849 138.813 43.2256C139.09 43.3671 139.399 43.4371 139.738 43.4371C140.077 43.4371 140.386 43.3664 140.663 43.2256C140.941 43.0849 141.158 42.8932 141.318 42.6518C141.477 42.4105 141.557 42.1447 141.557 41.8544C141.557 41.5641 141.477 41.3037 141.318 41.0603C141.159 40.8169 140.941 40.6245 140.663 40.4831ZM140.989 42.5097C140.869 42.7028 140.7 42.8544 140.483 42.9653C140.266 43.0754 140.017 43.1305 139.738 43.1305C139.459 43.1305 139.21 43.0754 138.993 42.9653C138.777 42.8551 138.608 42.7035 138.487 42.5097C138.367 42.3167 138.306 42.0977 138.306 41.8544C138.306 41.611 138.367 41.3982 138.487 41.2051C138.607 41.012 138.777 40.8604 138.996 40.7496C139.216 40.6388 139.463 40.5844 139.738 40.5844C140.013 40.5844 140.26 40.6394 140.48 40.7496C140.699 40.8597 140.869 41.0113 140.989 41.2051C141.109 41.3982 141.17 41.615 141.17 41.8544C141.17 42.0937 141.109 42.3167 140.989 42.5097Z" fill="#F40009"/>
<path d="M140.421 41.8285C140.473 41.7531 140.498 41.6688 140.498 41.5763C140.498 41.4485 140.452 41.3418 140.36 41.2547C140.268 41.1677 140.144 41.1242 139.99 41.1242H139.067V42.5567H139.473V42.0345H139.782L140.157 42.5567H140.621L140.202 41.9999C140.296 41.9611 140.37 41.904 140.421 41.8285ZM140.034 41.6776C140.004 41.7028 139.963 41.715 139.912 41.715H139.473V41.4369H139.912C139.963 41.4369 140.004 41.4499 140.034 41.4743C140.064 41.4995 140.08 41.5335 140.08 41.5756C140.08 41.6178 140.064 41.6518 140.034 41.6769V41.6776Z" fill="#F40009"/>
</svg>
