<svg width="276" height="90" viewBox="0 0 276 90" fill="none" xmlns="http://www.w3.org/2000/svg">
<g clip-path="url(#clip0_117_39116)">
<path d="M81.4546 73.1217V88.8878H79.6721V73.1217H81.4546ZM86.0946 73.1217V88.8878H84.3081V73.1217H86.0946ZM90.7385 75.4415V80.5967H95.9911V82.0874H90.7385V87.3284H96.576V88.905H88.9639V73.8692H96.5878V75.4458L90.7385 75.4415ZM108.69 73.8649L104.16 83.1957V88.8878H102.358V83.1957L97.8131 73.8649H99.888L103.283 81.1336L106.65 73.8649H108.69ZM75.7357 89.0726L71.5225 76.2062L67.2501 89.0726H65.3096L70.3882 74.0367H72.641L77.696 89.0726H75.7357Z" fill="#333333"/>
<path d="M33.3871 65.0411C32.4966 64.01 32.0513 62.5594 32.0513 60.6893V7.12309C32.0513 5.25006 32.4979 3.80232 33.3871 2.767C34.2764 1.73168 35.5095 1.22046 37.0746 1.22046H66.3214C67.9023 1.22046 69.1183 1.64003 69.9694 2.47917C70.831 3.33836 71.2657 4.50686 71.2657 6.0577C71.2657 7.60853 70.8428 8.91021 69.9931 9.78228C69.1433 10.6544 67.9142 11.0711 66.3451 11.0711H42.2639V28.3365H64.0647C65.5876 28.3365 66.7733 28.7074 67.6217 29.4491C68.4596 30.188 68.8825 31.2749 68.8825 32.6969C68.9116 33.294 68.8129 33.8903 68.5941 34.4389C68.3753 34.9875 68.0425 35.4735 67.6217 35.8587C66.7838 36.6033 65.5982 36.9742 64.0647 36.9713H42.2639V56.7241H66.3333C67.9142 56.7241 69.1302 57.1537 69.9812 58.0129C70.8428 58.8721 71.2776 60.1308 71.2776 61.7375C71.2776 63.3442 70.8428 64.4826 69.9812 65.3203C69.1196 66.158 67.9023 66.579 66.3333 66.579H37.0865C35.5135 66.5876 34.2804 66.075 33.3871 65.0411Z" fill="#7E7EED"/>
<path d="M83.2452 65.1011C82.3994 64.1073 81.9778 62.7412 81.9805 61.0028V6.44424C81.9805 4.64567 82.4416 3.20223 83.3638 2.11392C83.8344 1.5712 84.4069 1.1449 85.0425 0.863964C85.678 0.583031 86.3618 0.454042 87.0473 0.485757C87.7445 0.449261 88.4407 0.575714 89.0891 0.856583C89.7375 1.13745 90.3229 1.56621 90.8059 2.11392C91.7307 3.20223 92.1932 4.64567 92.1932 6.44424V56.7068H114.437C117.598 56.7068 119.179 58.3507 119.179 61.6386C119.179 64.9264 117.598 66.5718 114.437 66.5746H86.8102C85.2767 66.5861 84.0884 66.0949 83.2452 65.1011ZM129.886 63.0305C129.419 62.4929 129.055 61.8599 128.815 61.1682C128.574 60.4764 128.463 59.7398 128.487 59.0009V8.47622C128.443 7.74053 128.543 7.00307 128.782 6.31311C129.021 5.62315 129.393 4.99658 129.873 4.47526C130.352 3.95395 130.929 3.5499 131.564 3.29011C132.198 3.03033 132.877 2.92079 133.554 2.96881C135.135 2.96881 136.387 3.47574 137.316 4.47669C137.784 5.00658 138.148 5.63439 138.386 6.32195C138.624 7.00951 138.73 7.74245 138.7 8.47622V59.0009C138.727 59.7407 138.619 60.4791 138.381 61.1731C138.144 61.8671 137.782 62.5029 137.316 63.0434C136.387 64.0744 135.139 64.5899 133.554 64.5899C132.876 64.6195 132.201 64.4963 131.569 64.2279C130.938 63.9595 130.365 63.5518 129.886 63.0305ZM168.468 65.6725C167.546 64.5899 167.085 63.1479 167.085 61.3465V11.0839H152.675C149.513 11.0839 147.932 9.43851 147.932 6.14782C147.932 2.85712 149.513 1.2132 152.675 1.21607H191.7C194.861 1.21607 196.442 2.85998 196.442 6.14782C196.442 9.43565 194.861 11.081 191.7 11.0839H177.293V61.3465C177.293 63.145 176.832 64.587 175.91 65.6725C175.44 66.216 174.868 66.6431 174.232 66.9248C173.596 67.2064 172.912 67.3361 172.227 67.3049C171.529 67.342 170.832 67.2154 170.184 66.9337C169.535 66.652 168.95 66.2219 168.468 65.6725ZM204.73 65.041C203.842 64.0099 203.397 62.5593 203.394 60.6892V7.12299C203.394 5.24996 203.841 3.80223 204.73 2.7669C205.619 1.73158 206.849 1.22036 208.418 1.22036H237.664C239.245 1.22036 240.461 1.63993 241.312 2.47908C242.174 3.33827 242.609 4.50676 242.609 6.0576C242.609 7.60844 242.174 8.91011 241.312 9.78219C240.451 10.6543 239.233 11.071 237.664 11.071H213.595V28.3364H235.38C236.903 28.3364 238.089 28.7073 238.937 29.449C239.775 30.1879 240.194 31.2748 240.194 32.6968C240.225 33.2938 240.128 33.8905 239.91 34.4394C239.692 34.9883 239.359 35.4743 238.937 35.8586C238.099 36.6032 236.914 36.9741 235.38 36.9712H213.607V56.724H237.676C239.257 56.724 240.473 57.1536 241.324 58.0128C242.186 58.872 242.621 60.1307 242.621 61.7374C242.621 63.3441 242.186 64.4825 241.324 65.3202C240.463 66.1579 239.245 66.5789 237.676 66.5789H208.429C206.849 66.5918 205.623 66.072 204.73 65.041Z" fill="#333333"/>
<path d="M243.103 6.0921V6.21668C243.094 7.5126 242.615 8.7523 241.768 9.66505C240.922 10.5778 239.778 11.0895 238.585 11.0883H213.607C210.85 11.2457 208.253 12.5473 206.353 14.7247C204.452 16.9021 203.394 19.7892 203.394 22.7904V5.73124C203.403 4.52878 203.849 3.37893 204.636 2.53348C205.422 1.68804 206.485 1.21591 207.592 1.22049H238.593C239.784 1.22159 240.926 1.73425 241.771 2.64676C242.616 3.55926 243.094 4.79766 243.103 6.0921ZM121.693 61.716V61.5786C121.685 60.2834 121.205 59.0443 120.36 58.1317C119.514 57.2191 118.371 56.7069 117.179 56.707H92.1931C89.4351 56.5495 86.8379 55.2473 84.9376 53.069C83.0372 50.8906 81.9787 48.0025 81.9805 45.0005V62.0597C81.982 62.6588 82.0925 63.2516 82.3055 63.8041C82.5186 64.3565 82.83 64.8578 83.222 65.279C83.6139 65.7002 84.0785 66.033 84.5892 66.2583C85.0998 66.4837 85.6464 66.597 86.1975 66.5919H117.199C118.388 66.5863 119.527 66.071 120.368 65.1581C121.21 64.2452 121.686 63.0082 121.693 61.716ZM123.531 75.7981H119.001V88.643H117.124V75.7981H112.615V74.1528H123.531V75.7981ZM134.194 87.0321V88.6301H125.594V74.1528H134.182V75.7552H127.463V80.5667H132.89V82.1003H127.483V87.0406L134.194 87.0321ZM146.316 85.6359C146.418 85.6386 146.516 85.6848 146.588 85.7647L147.335 86.6025C146.759 87.2951 146.051 87.8434 145.26 88.2091C144.323 88.6194 143.318 88.8154 142.308 88.7848C141.376 88.7976 140.45 88.6153 139.581 88.2478C138.794 87.907 138.082 87.3903 137.49 86.7313C136.901 86.0602 136.445 85.2648 136.15 84.3943C135.822 83.4324 135.66 82.413 135.672 81.3872C135.661 80.3599 135.829 79.3397 136.166 78.38C136.48 77.5038 136.956 76.7069 137.565 76.0387C138.178 75.3746 138.912 74.8567 139.719 74.518C140.601 74.1479 141.54 73.9642 142.486 73.9767C143.383 73.9598 144.274 74.1274 145.114 74.4707C145.85 74.7856 146.529 75.241 147.118 75.8153L146.493 76.7132C146.457 76.7819 146.406 76.8396 146.343 76.8807C146.27 76.9293 146.184 76.9532 146.098 76.9495C145.94 76.9308 145.79 76.8621 145.667 76.7518C145.455 76.5947 145.235 76.4512 145.007 76.3223C144.68 76.1425 144.337 75.9986 143.984 75.8927C143.493 75.7508 142.986 75.6842 142.478 75.695C141.802 75.6854 141.131 75.8182 140.502 76.086C139.919 76.335 139.393 76.7191 138.96 77.2115C138.515 77.7304 138.172 78.343 137.953 79.0115C137.704 79.78 137.583 80.59 137.593 81.4044C137.581 82.2273 137.708 83.0457 137.968 83.8187C138.194 84.4856 138.541 85.0964 138.988 85.6144C139.419 86.0997 139.941 86.479 140.518 86.727C141.122 86.9885 141.768 87.1199 142.419 87.1137C142.795 87.1164 143.172 87.0905 143.545 87.0363C143.858 86.9905 144.167 86.9114 144.466 86.8001C144.742 86.6955 145.007 86.5587 145.256 86.392C145.51 86.2138 145.752 86.0157 145.98 85.7991C146.069 85.7008 146.189 85.6425 146.316 85.6359ZM160.82 74.1528V88.643H158.919V82.0402H151.41V88.643H149.525V74.1657H151.41V80.6096H158.919V74.1657L160.82 74.1528ZM175.673 74.1528V88.643H174.728C174.6 88.649 174.473 88.621 174.357 88.5614C174.242 88.4945 174.141 88.4023 174.061 88.2908L165.994 77.3791C165.994 77.5466 166.018 77.7098 166.022 77.8731C166.026 78.0363 166.022 78.1867 166.022 78.3285V88.6387H164.366V74.1614H165.342C165.413 74.1564 165.484 74.1564 165.555 74.1614C165.608 74.1722 165.66 74.1895 165.709 74.2129C165.759 74.2397 165.805 74.2729 165.848 74.3117L165.994 74.4793L174.057 85.3824C174.057 85.2063 174.033 85.0344 174.021 84.8712C174.009 84.7079 174.021 84.549 174.021 84.4029V74.1528H175.673ZM192.118 81.3958C192.132 82.4236 191.962 83.4446 191.62 84.4029C191.31 85.2798 190.833 86.076 190.221 86.7399C189.601 87.4041 188.861 87.9219 188.048 88.2607C186.237 88.9823 184.25 88.9823 182.439 88.2607C181.628 87.9214 180.889 87.4036 180.27 86.7399C179.658 86.075 179.18 85.2792 178.866 84.4029C178.208 82.4768 178.208 80.3577 178.866 78.4316C179.181 77.5534 179.659 76.755 180.27 76.086C180.89 75.4213 181.628 74.9009 182.439 74.5566C184.249 73.829 186.238 73.829 188.048 74.5566C188.861 74.8998 189.6 75.4203 190.221 76.086C190.832 76.7539 191.309 77.5527 191.62 78.4316C191.958 79.3765 192.127 80.3823 192.118 81.3958ZM190.182 81.3958C190.194 80.5823 190.076 79.7727 189.834 79.0029C189.623 78.3354 189.285 77.7237 188.842 77.2072C188.405 76.7131 187.873 76.3289 187.285 76.0817C185.968 75.5547 184.522 75.5547 183.206 76.0817C182.617 76.3291 182.084 76.7132 181.645 77.2072C181.2 77.7222 180.86 78.3344 180.649 79.0029C180.18 80.5559 180.18 82.2313 180.649 83.7843C180.86 84.4503 181.2 85.0596 181.645 85.5714C182.084 86.0655 182.617 86.4496 183.206 86.697C184.524 87.2126 185.967 87.2126 187.285 86.697C187.873 86.4498 188.405 86.0656 188.842 85.5714C189.285 85.0582 189.623 84.4492 189.834 83.7843C190.075 83.0157 190.191 82.2076 190.178 81.3958H190.182ZM202.718 86.9848V88.643H194.814V74.1657H196.691V86.9977L202.718 86.9848ZM217.018 81.3958C217.032 82.4233 216.864 83.4443 216.524 84.4029C216.216 85.2839 215.739 86.084 215.126 86.7504C214.513 87.4168 213.777 87.9345 212.967 88.2693C211.156 88.9908 209.169 88.9908 207.358 88.2693C206.549 87.9316 205.815 87.413 205.202 86.7469C204.589 86.0809 204.112 85.2823 203.801 84.4029C203.143 82.4768 203.143 80.3577 203.801 78.4316C204.113 77.553 204.591 76.7552 205.204 76.0893C205.816 75.4234 206.55 74.9043 207.358 74.5652C209.168 73.8376 211.157 73.8376 212.967 74.5652C213.776 74.9017 214.512 75.4199 215.124 76.0861C215.737 76.7523 216.214 77.5515 216.524 78.4316C216.859 79.3768 217.027 80.3826 217.018 81.3958ZM215.085 81.3958C215.096 80.5821 214.977 79.7725 214.733 79.0029C214.522 78.3354 214.184 77.7237 213.741 77.2072C213.305 76.7112 212.774 76.3268 212.184 76.0817C210.869 75.5546 209.424 75.5546 208.109 76.0817C207.513 76.3263 206.973 76.7106 206.528 77.2072C206.083 77.7232 205.743 78.3349 205.528 79.0029C205.064 80.5567 205.064 82.2305 205.528 83.7843C205.743 84.4498 206.083 85.0587 206.528 85.5714C206.973 86.0681 207.513 86.4523 208.109 86.697C209.426 87.2126 210.867 87.2126 212.184 86.697C212.774 86.4519 213.305 86.0674 213.741 85.5714C214.184 85.0582 214.522 84.4492 214.733 83.7843C214.98 83.0168 215.101 82.2086 215.093 81.3958H215.085ZM231.044 81.6707V87.2254C230.358 87.7418 229.602 88.1389 228.803 88.4025C227.955 88.6686 227.074 88.7989 226.191 88.7891C225.158 88.8046 224.131 88.6228 223.156 88.2521C222.3 87.9214 221.515 87.4055 220.848 86.7356C220.205 86.0825 219.7 85.285 219.369 84.3986C219.018 83.4427 218.843 82.4208 218.856 81.3915C218.844 80.3634 219.014 79.3425 219.357 78.3843C219.674 77.5023 220.161 76.704 220.784 76.043C221.427 75.3744 222.192 74.8606 223.029 74.5351C223.977 74.1657 224.978 73.9839 225.985 73.9981C226.5 73.995 227.015 74.0381 227.523 74.127C227.97 74.201 228.409 74.3218 228.835 74.4879C229.224 74.6405 229.598 74.8333 229.954 75.0635C230.295 75.2874 230.618 75.5433 230.918 75.8282L230.384 76.7175C230.307 76.8439 230.191 76.9355 230.056 76.9752C229.903 77.0066 229.744 76.9712 229.614 76.8764C229.46 76.7862 229.282 76.6702 229.08 76.5371C228.846 76.383 228.6 76.2522 228.345 76.1461C228.014 76.0076 227.673 75.9012 227.325 75.8282C226.866 75.7322 226.398 75.6876 225.93 75.695C225.202 75.6839 224.479 75.8193 223.796 76.0946C223.182 76.3419 222.626 76.7336 222.168 77.2415C221.709 77.7495 221.36 78.3612 221.144 79.033C220.895 79.7938 220.773 80.5969 220.784 81.4044C220.771 82.2355 220.897 83.0622 221.156 83.8445C221.385 84.5327 221.752 85.157 222.23 85.6719C222.709 86.1869 223.287 86.5796 223.922 86.8215C224.639 87.0926 225.393 87.2249 226.151 87.2125C226.734 87.2229 227.315 87.1463 227.879 86.9848C228.389 86.8306 228.883 86.6189 229.353 86.3533V83.1743H227.175C227.066 83.1791 226.958 83.1393 226.875 83.0626C226.84 83.0277 226.812 82.9852 226.793 82.9379C226.773 82.8905 226.764 82.8393 226.764 82.7877V81.6793L231.044 81.6707ZM238.846 82.8607V88.643H236.961V82.8607L231.855 74.1528H233.507C233.647 74.1459 233.786 74.1897 233.902 74.2774C234.005 74.3686 234.091 74.481 234.155 74.6082L237.344 80.2359C237.463 80.4678 237.57 80.6912 237.664 80.8974C237.761 81.0983 237.846 81.3048 237.921 81.5161C237.992 81.3099 238.072 81.0865 238.162 80.8974C238.253 80.7084 238.352 80.4678 238.463 80.2359L241.644 74.6082C241.708 74.4883 241.791 74.3821 241.889 74.2946C242.001 74.1976 242.142 74.1474 242.285 74.1528H243.949L238.846 82.8607Z" fill="#7E7EED"/>
<path d="M266.816 19.0486C266.816 15.9642 264.516 13.4639 261.678 13.4639C258.841 13.4639 256.541 15.9642 256.541 19.0486V47.4019C256.541 50.4862 258.841 52.9866 261.678 52.9866C264.516 52.9866 266.816 50.4862 266.816 47.4019V19.0486Z" fill="#7E7EED"/>
</g>
<defs>
<clipPath id="clip0_117_39116">
<rect width="276" height="90" fill="white"/>
</clipPath>
</defs>
</svg>
