<svg width="148" height="39" viewBox="0 0 148 39" fill="none" xmlns="http://www.w3.org/2000/svg">
<g clip-path="url(#clip0_221_526)">
<path d="M11.5929 6.15374C9.85741 6.15374 9.33677 7.1931 9.33677 9.50803V13.3348H13.9878L13.5366 19.5709H9.33677V38.4211H3.74859V19.5709H0V13.382H3.74859V9.64976C3.74859 3.31913 5.62289 0.012085 10.7946 0.012085C11.8705 0.012085 12.9812 0.106572 14.0572 0.295546V6.15374" fill="#004F9D"/>
<path d="M14.3697 25.0984C14.3697 18.1063 16.7993 12.8151 21.9363 12.8151C24.713 12.8151 26.4138 14.752 27.2468 17.2087V13.382H32.592V38.4683H27.2121V34.6888C26.4485 37.0982 24.6783 38.988 21.9016 38.988C16.7993 38.988 14.335 33.7439 14.335 26.7047M19.9578 26.7991C19.9578 30.5314 20.9644 33.0353 23.5676 33.0353C25.8584 33.0353 27.0038 30.7676 27.0038 27.1771V24.6259C27.0038 21.0354 25.8237 18.7677 23.5676 18.7677C20.9644 18.7677 19.9578 21.2244 19.9578 25.0039V26.7991Z" fill="#004F9D"/>
<path d="M44.1849 12.8151C46.3369 12.8151 48.4194 13.4292 49.5301 14.5158L48.2806 19.9016C47.1352 19.1457 45.8509 18.7677 44.5667 18.7677C41.547 18.7677 40.228 21.1299 40.228 25.1929V26.6574C40.228 30.7204 41.547 33.0825 44.5667 33.0825C45.8509 33.0825 47.1352 32.6573 48.2806 31.9014L49.5301 37.2872C48.4194 38.3266 46.3716 38.988 44.1849 38.988C37.6248 38.988 34.6746 34.2164 34.6746 26.5157V25.3346C34.6746 17.6339 37.6248 12.8151 44.1849 12.8151Z" fill="#004F9D"/>
<path d="M50.259 26.8464V24.6259C50.259 17.4922 53.244 12.8151 59.3181 12.8151C65.0451 12.8151 67.5789 17.5394 67.5789 24.5315V28.5471H55.8472C55.9513 31.9959 57.0967 33.5077 60.1859 33.5077C62.199 33.5077 64.2121 32.988 66.1211 31.9959L67.1277 37.1927C65.6699 38.2321 62.6502 39.0352 59.9776 39.0352C52.8969 38.988 50.259 34.2164 50.259 26.8464ZM55.8472 23.5393H62.5808V22.9252C62.5808 20.185 61.7825 18.0118 59.3181 18.0118C56.8191 18.0118 55.8472 20.185 55.8472 23.5393Z" fill="#004F9D"/>
<path d="M88.2655 26.7047C88.2655 33.6967 85.8011 38.988 80.6641 38.988C77.8874 38.988 75.9437 37.0982 75.1801 34.6888V38.4683H69.9043V0.767976L75.4925 0.106567V16.878C76.2908 14.6576 78.0957 12.8623 80.6989 12.8623C85.8011 12.8623 88.3002 18.1063 88.3002 25.1456M82.6773 24.9566C82.6773 21.4134 81.6707 18.7677 78.9981 18.7677C76.7073 18.7677 75.4925 20.9882 75.4925 24.5787V27.2243C75.4925 30.8148 76.742 33.0353 78.9981 33.0353C81.6707 33.0353 82.6773 30.3897 82.6773 26.8464V24.9566Z" fill="#004F9D"/>
<path d="M90.105 26.5157V25.2401C90.105 18.0118 93.1247 12.8151 99.2682 12.8151C105.412 12.8151 108.431 18.0118 108.431 25.2401V26.5157C108.431 33.7439 105.412 38.9407 99.2682 38.9407C93.1247 38.9407 90.105 33.7912 90.105 26.5157ZM102.878 24.7204C102.878 21.4134 101.871 18.7677 99.2682 18.7677C96.665 18.7677 95.6585 21.4134 95.6585 24.7204V27.0826C95.6585 30.3896 96.665 33.0353 99.2682 33.0353C101.871 33.0353 102.878 30.3896 102.878 27.0826V24.7204Z" fill="#004F9D"/>
<path d="M110.341 26.5157V25.2401C110.341 18.0118 113.36 12.8151 119.504 12.8151C125.647 12.8151 128.667 18.0118 128.667 25.2401V26.5157C128.667 33.7439 125.647 38.9407 119.504 38.9407C113.36 38.9407 110.341 33.7912 110.341 26.5157ZM123.114 24.7204C123.114 21.4134 122.107 18.7677 119.504 18.7677C116.901 18.7677 115.894 21.4134 115.894 24.7204V27.0826C115.894 30.3896 116.901 33.0353 119.504 33.0353C122.107 33.0353 123.114 30.3896 123.114 27.0826V24.7204Z" fill="#004F9D"/>
<path d="M136.338 25.3346L141.856 13.3348H147.757L141.995 25.7598L148 38.4683H142.065L136.338 26.185V38.4683H130.784V0.767979L136.338 0.0593262" fill="#004F9D"/>
</g>
<defs>
<clipPath id="clip0_221_526">
<rect width="148" height="39" fill="white"/>
</clipPath>
</defs>
</svg>
