<svg width="148" height="48" viewBox="0 0 148 48" fill="none" xmlns="http://www.w3.org/2000/svg">
<g clip-path="url(#clip0_221_465)">
<path d="M22.8861 23.3242H29.2508V31.7818C27.2649 32.3854 24.7574 32.7165 22.1509 32.7165C11.5872 32.7165 5.3786 24.158 5.3786 15.7995C5.3786 7.60154 10.9944 1.85119 18.8293 1.85119C23.787 1.85119 26.6718 3.44023 29.2526 5.65371V8.41309L34.0918 3.8347C31.031 1.87546 26.5988 0.0134583 20.2638 0.0134583C6.35674 0.0134583 0 9.42655 0 17.1623C0 28.1735 8.47702 34.8067 19.1298 34.8067C24.2951 34.8067 28.8813 34.0607 34.1789 32.666V23.928C34.1789 23.4812 34.3864 23.1746 34.6966 22.9054L36.3683 21.3238H25.0163L22.8861 23.3242Z" fill="url(#paint0_linear_221_465)"/>
<path d="M51.3978 11.8305C43.3931 11.8305 38.4333 17.3644 38.4333 23.2384C38.4333 28.3084 42.429 34.328 50.5244 34.328C58.3118 34.328 63.0898 28.7833 63.0898 22.8065C63.0898 17.2392 58.4205 11.8326 51.3978 11.8326V11.8305ZM50.0697 13.4439C55.7134 13.4439 58.2267 20.4003 58.2267 25.3619C58.2267 32.7408 52.3758 32.8867 51.6763 32.8867C48.9988 32.8867 47.1275 31.3557 45.7267 29.3477C44.4937 27.4971 43.2883 24.0589 43.2883 20.6994C43.2883 17.353 44.4461 15.7191 46.2681 14.517C47.758 13.6159 49.1531 13.4439 50.0678 13.4439H50.0697Z" fill="url(#paint1_linear_221_465)"/>
<path d="M103.724 11.8286C96.733 11.8286 92.951 16.0163 92.951 20.6919C92.951 24.2515 95.6462 28.2671 101.207 28.2671H102.613C102.613 28.2671 102.23 29.1477 102.228 29.9983C102.228 31.2529 102.704 31.9575 103.716 33.0418C94.1482 33.5933 90.303 37.2445 90.303 41.1685C90.303 44.6049 93.7809 47.9868 101.09 47.9868C109.743 47.9868 114.224 43.4418 114.224 38.9814C114.224 35.8369 112.568 34.1132 108.375 31.1407C107.142 30.234 106.903 29.6566 106.903 28.9779C106.903 28.0058 107.518 27.3625 107.743 27.1196C108.14 26.7233 108.828 26.2709 109.085 26.054C110.494 24.9248 112.484 23.2537 112.484 19.9183C112.484 17.6301 111.477 15.6615 109.186 13.8182H111.984L114.086 11.8291H103.724V11.8286ZM101.796 13.3168C103.064 13.3168 104.123 13.7412 105.242 14.6217C106.482 15.6798 108.465 18.5233 108.465 22.0417C108.465 25.8387 105.347 26.8781 103.659 26.8781C102.833 26.8781 101.843 26.6594 101.005 26.1172C99.144 24.9752 97.2962 21.9351 97.2962 18.3177C97.2962 15.0535 99.3513 13.3168 101.796 13.3168ZM104.564 34.4832C105.097 34.4832 105.481 34.5245 105.481 34.5245C105.481 34.5245 106.74 35.3751 107.619 36.0106C109.666 37.5417 110.942 38.712 110.942 40.7967C110.942 43.6626 108.133 45.9097 103.582 45.9097C98.5867 45.9097 94.7689 43.7093 94.7689 40.1164C94.7689 37.1399 97.3851 34.5784 104.564 34.4832Z" fill="url(#paint2_linear_221_465)"/>
<path d="M115.6 33.6719H125.197L126.659 32.2886L123.907 31.9633C123.166 31.8773 122.725 31.2716 122.725 30.6846V3.25722C122.725 2.71694 122.99 2.44025 123.183 2.26433L124.915 0.626648H116.73L114.6 2.64197H117.781V31.0527C117.781 31.4565 117.647 31.7313 117.358 32.0136L115.6 33.6719Z" fill="url(#paint3_linear_221_465)"/>
<path d="M138.201 11.8305C132.842 11.8305 127.149 15.6948 127.149 22.6325C127.149 28.3623 131.234 34.328 138.865 34.328C140.768 34.328 142.335 34.0964 143.803 33.4589C145.378 32.7728 146.894 31.6586 148 30.2583C145.911 31.2548 144.208 31.9091 141.945 31.9091C137.646 31.9091 133.5 28.974 132.05 23.5786L147.239 17.7701C146.362 14.8107 143.888 11.8305 138.203 11.8305H138.201ZM137.209 13.4177C140.084 13.4177 142.163 15.6555 142.163 17.4072C142.163 17.9737 141.788 18.2728 141.044 18.5495L131.708 22.1221C131.708 22.1221 131.455 21.0098 131.455 19.8077C131.455 14.7656 135.308 13.4177 137.209 13.4177Z" fill="url(#paint4_linear_221_465)"/>
<path d="M78.5597 11.8305C70.5549 11.8305 65.5952 17.3644 65.5952 23.2384C65.5952 28.3084 69.5909 34.328 77.6863 34.328C85.4737 34.328 90.2516 28.7833 90.2516 22.8065C90.2516 17.2392 85.5824 11.8326 78.5597 11.8326V11.8305ZM77.2317 13.4439C82.8753 13.4439 85.3885 20.4003 85.3885 25.3619C85.3885 32.7408 79.5376 32.8867 78.8381 32.8867C76.1607 32.8867 74.2894 31.3557 72.8886 29.3477C71.6556 27.4971 70.4502 24.0589 70.4502 20.6994C70.4502 17.353 71.6079 15.7191 73.43 14.517C74.9199 13.6159 76.315 13.4439 77.2297 13.4439H77.2317Z" fill="url(#paint5_linear_221_465)"/>
</g>
<defs>
<linearGradient id="paint0_linear_221_465" x1="18.0938" y1="-0.0850317" x2="18.0938" y2="34.8048" gradientUnits="userSpaceOnUse">
<stop stop-color="#196EEF"/>
<stop offset="0.5" stop-color="#186DEE"/>
<stop offset="1" stop-color="#1065E7"/>
</linearGradient>
<linearGradient id="paint1_linear_221_465" x1="50.6719" y1="11.7772" x2="50.6719" y2="34.3375" gradientUnits="userSpaceOnUse">
<stop stop-color="#DE5744"/>
<stop offset="0.5" stop-color="#DB4632"/>
<stop offset="1" stop-color="#D13D29"/>
</linearGradient>
<linearGradient id="paint2_linear_221_465" x1="102.176" y1="11.7772" x2="102.176" y2="48.0005" gradientUnits="userSpaceOnUse">
<stop stop-color="#1A6FEF"/>
<stop offset="0.25" stop-color="#1E72EF"/>
<stop offset="0.5" stop-color="#166BEC"/>
<stop offset="0.75" stop-color="#1267E9"/>
<stop offset="1" stop-color="#1063E5" stop-opacity="0.87"/>
</linearGradient>
<linearGradient id="paint3_linear_221_465" x1="120.542" y1="0.548864" x2="120.542" y2="33.7036" gradientUnits="userSpaceOnUse">
<stop stop-color="#0AA561"/>
<stop offset="0.5" stop-color="#009B58"/>
<stop offset="1" stop-color="#00914B"/>
</linearGradient>
<linearGradient id="paint4_linear_221_465" x1="137.488" y1="11.7772" x2="137.488" y2="34.2754" gradientUnits="userSpaceOnUse">
<stop stop-color="#DE5644"/>
<stop offset="0.5" stop-color="#DA4531"/>
<stop offset="1" stop-color="#CE3A28"/>
</linearGradient>
<linearGradient id="paint5_linear_221_465" x1="77.8344" y1="11.8262" x2="77.8344" y2="34.2928" gradientUnits="userSpaceOnUse">
<stop stop-color="#FFC01A"/>
<stop offset="0.5" stop-color="#FFBA03"/>
<stop offset="1" stop-color="#FFB300"/>
</linearGradient>
<clipPath id="clip0_221_465">
<rect width="148" height="48" fill="white"/>
</clipPath>
</defs>
</svg>
