<svg width="276" height="69" viewBox="0 0 276 69" fill="none" xmlns="http://www.w3.org/2000/svg">
<path d="M61.9611 16.9264V38.2782C61.9611 38.6244 61.7957 38.9563 61.5012 39.201C61.2068 39.4458 60.8074 39.5832 60.3909 39.5832H52.2811C51.8647 39.5831 51.4655 39.4456 51.171 39.2009C50.8766 38.9562 50.7111 38.6243 50.7109 38.2782V3.54837C50.7109 3.20227 50.8764 2.87033 51.1708 2.6256C51.4653 2.38086 51.8647 2.24337 52.2811 2.24337H59.7858C60.2023 2.24337 60.6017 2.38086 60.8961 2.6256C61.1906 2.87033 61.356 3.20227 61.356 3.54837V8.43926C61.356 8.43926 64.0388 1.46256 72.0004 1.46256C72.0004 1.46256 79.8756 0.671384 83.0775 7.93578C83.0775 7.93578 85.7603 1.46256 93.895 1.46256C93.895 1.46256 105.993 0.864718 105.993 11.2685L106.085 16.9983V38.3502C106.085 38.6963 105.919 39.0282 105.625 39.2729C105.33 39.5177 104.931 39.6552 104.515 39.6552H96.404C95.9876 39.655 95.5883 39.5175 95.2939 39.2728C94.9995 39.0281 94.834 38.6962 94.8338 38.3502L94.7597 15.0563C94.9903 9.78166 89.856 10.1655 89.856 10.1655C83.3946 10.2615 84.0163 16.9983 84.0163 16.9983V38.3502C84.0163 38.6963 83.8509 39.0282 83.5564 39.2729C83.262 39.5177 82.8626 39.6552 82.4461 39.6552H74.3363C73.9199 39.655 73.5207 39.5175 73.2262 39.2728C72.9318 39.0281 72.7663 38.6962 72.7661 38.3502V15.5834C72.7661 15.5834 73.2404 10.1171 67.4706 10.1171C67.4713 10.1171 61.7597 9.49396 61.9611 16.9264ZM271.01 16.8625V38.2138C271.01 38.5599 270.845 38.8917 270.55 39.1364C270.256 39.3811 269.857 39.5187 269.44 39.5188L261.006 39.6546C260.589 39.6544 260.19 39.5169 259.895 39.2722C259.601 39.0275 259.436 38.6957 259.435 38.3496V15.5834C259.435 15.5834 259.91 10.1171 254.141 10.1171C254.141 10.1171 248.63 9.89156 248.63 18.4621V38.2777C248.63 38.6237 248.465 38.9556 248.17 39.2003C247.876 39.445 247.477 39.5825 247.06 39.5827H238.95C238.533 39.5825 238.134 39.445 237.84 39.2003C237.545 38.9556 237.38 38.6237 237.38 38.2777V3.54837C237.38 3.20231 237.545 2.87047 237.84 2.62577C238.134 2.38106 238.533 2.24352 238.95 2.24337H246.454C246.871 2.24337 247.27 2.38086 247.565 2.6256C247.859 2.87033 248.025 3.20227 248.025 3.54837V8.43926C248.025 8.43926 250.707 1.46256 258.669 1.46256C258.669 1.46256 267.198 0.387138 270.07 7.80057C270.071 7.79999 271.01 9.3294 271.01 16.8625ZM212.454 1.31871C202.083 1.31871 193.675 8.58311 193.675 20.8103C193.675 31.5754 200.165 40.3019 212.454 40.3019C224.05 40.3019 231.233 31.5754 231.233 20.8103C231.233 8.79888 222.826 1.31871 212.454 1.31871ZM219 21.2419C219 25.845 218.308 28.2905 218.308 28.2905C217.322 33.1566 213.072 33.1635 212.446 33.1376C211.769 33.1601 207.483 33.1094 206.596 28.2905C206.596 28.2905 205.904 25.845 205.904 21.2419V20.4749C205.904 15.8717 206.596 13.4262 206.596 13.4262C207.483 8.60727 211.77 8.55664 212.446 8.5785C213.072 8.55261 217.322 8.55894 218.308 13.4262C218.308 13.4262 219 15.8717 219 20.4749V21.2419ZM188.968 8.39092V3.40798C188.968 3.06192 188.802 2.73007 188.508 2.48537C188.213 2.24067 187.814 2.10313 187.398 2.10297H160.591C160.174 2.10297 159.775 2.24047 159.481 2.4852C159.186 2.72994 159.021 3.06187 159.021 3.40798V8.35237C159.021 8.69843 159.186 9.03028 159.481 9.27498C159.775 9.51968 160.175 9.65722 160.591 9.65737H174.574L158.023 29.6122C158.023 29.6122 157.371 30.4212 157.392 31.3148V37.3847C157.392 37.3847 157.284 39.4659 160.124 38.2581C160.124 38.2581 165.169 35.7252 173.627 35.7252C173.627 35.7252 181.979 35.6389 187.548 38.4762C187.548 38.4762 189.86 39.3496 189.86 37.429V32.1457C189.86 32.1457 190.07 30.7474 187.863 29.8746C187.863 29.8746 181.454 26.9492 173.049 27.4291L188.968 8.39092ZM44.4517 33.3724L41.9129 30.1605C41.105 28.9614 41.1632 27.6184 41.1632 27.6184V12.8025C41.5093 -0.0001055 24.4319 1.10293 24.4319 1.10293C9.25072 1.10293 7.0083 10.9221 7.0083 10.9221C6.37552 12.8963 8.21571 12.944 8.21571 12.944L15.6339 13.5695C15.6339 13.5695 16.8988 13.81 17.3592 12.5585C17.3592 12.5585 18.336 8.27469 23.7991 8.27469C29.7434 8.27469 29.6817 12.5148 29.6817 12.5148V16.0644C17.8154 16.3941 12.3163 19.1319 12.3163 19.1319C4.9895 22.5843 5.45059 29.4413 5.45059 29.4413C5.45059 40.6132 18.2585 40.1333 18.2585 40.1333C26.4507 40.1333 31.2969 35.1469 31.2969 35.1469C32.739 37.2575 35.3934 39.2702 35.3934 39.2702C36.7212 40.4671 38.1052 39.4624 38.1052 39.4624L44.1055 35.1953C45.432 34.3793 44.4517 33.3724 44.4517 33.3724ZM22.2566 33.2343C18.4032 33.2343 16.9708 30.0518 17.6105 26.9239C18.2509 23.7961 21.5768 21.338 29.6824 21.4099V23.3116C29.9698 31.6192 25.4641 33.2343 22.2566 33.2343ZM152.222 33.3724L149.684 30.1605C148.876 28.9614 148.934 27.6184 148.934 27.6184V12.8025C149.28 -0.0001055 132.202 1.10293 132.202 1.10293C117.021 1.10293 114.779 10.9221 114.779 10.9221C114.146 12.8963 115.986 12.944 115.986 12.944L123.404 13.5695C123.404 13.5695 124.669 13.81 125.13 12.5585C125.13 12.5585 126.107 8.27469 131.57 8.27469C137.514 8.27469 137.452 12.5148 137.452 12.5148V16.0644C125.587 16.3941 120.087 19.1319 120.087 19.1319C112.76 22.5843 113.221 29.4413 113.221 29.4413C113.221 40.6132 126.029 40.1333 126.029 40.1333C134.221 40.1333 139.067 35.1469 139.067 35.1469C140.51 37.2575 143.163 39.2702 143.163 39.2702C144.491 40.4671 145.876 39.4624 145.876 39.4624L151.875 35.1953C153.203 34.3793 152.222 33.3724 152.222 33.3724ZM130.027 33.2343C126.174 33.2343 124.741 30.0518 125.381 26.9239C126.021 23.7961 129.347 21.338 137.452 21.4099V23.3116C137.74 31.6192 133.235 33.2343 130.027 33.2343Z" fill="black"/>
<path d="M172.643 61.4162C172.643 61.4162 171.965 62.3973 172.798 62.6165C172.798 62.6165 173.74 62.9221 174.914 62.0164C174.914 62.0164 183.477 55.7992 183.684 44.48C183.684 44.48 183.747 43.0662 183.064 42.6796C183.064 42.6796 180.381 40.7071 170.735 41.3072C170.735 41.3072 162.326 41.7791 157.735 45.1664C157.735 45.1664 157.322 45.4662 157.322 45.8517C157.322 45.8517 157.223 46.6843 159.747 46.3236C159.747 46.3236 168.155 45.3367 173.159 45.8517C173.159 45.8517 175.739 46.1089 176.461 46.8385C176.461 46.8385 177.648 47.6533 177.028 50.3536C177.028 50.3548 175.325 57.2147 172.643 61.4162Z" fill="#F3971B"/>
<path d="M170.948 50.5568C170.948 50.5568 172.204 51.909 170.177 53.0753C170.177 53.0753 148.53 67.466 112.184 67.466C112.184 67.466 74.7694 69 43.5285 45.4087C43.5285 45.4087 42.4332 44.6095 43.1131 43.8667C43.1131 43.8667 43.721 43.1831 45.2946 43.9265C45.2946 43.9265 74.6828 59.1464 113.28 59.1464C113.28 59.1464 140.107 60.0094 167.627 50.2277C167.627 50.2277 169.819 49.2835 170.948 50.5568Z" fill="#F3971B"/>
</svg>
