<svg width="154" height="88" viewBox="0 0 154 88" fill="none" xmlns="http://www.w3.org/2000/svg">
<g clip-path="url(#clip0_117_39132)">
<path d="M16.6448 58.0524C16.6448 63.1204 17.935 66.9952 19.6214 69.3449C20.5201 70.6827 21.8142 71.7919 23.3724 72.5598C24.9305 73.3278 26.697 73.7271 28.4925 73.7173C32.829 73.7173 36.7962 72.7958 44.4413 63.6917C50.5659 56.3983 57.7827 46.1839 62.6439 39.7336L70.8672 28.8603C76.5796 21.3089 83.1808 12.9143 90.7723 7.20586C96.9559 2.58011 103.632 0 110.351 0C121.631 0 132.376 5.62555 140.599 16.1763C149.599 27.7315 153.984 42.2861 153.984 57.306C153.984 66.235 151.939 72.7958 148.459 77.9791C145.102 82.9918 138.527 88 127.504 88V73.7173C136.943 73.7173 139.282 66.2534 139.282 57.7114C139.282 45.5388 135.984 32.0302 128.719 22.3778C123.564 15.5313 116.882 11.3479 109.532 11.3479C101.581 11.3479 95.1838 16.5081 87.9938 25.7089C84.1712 30.5973 80.2469 36.5546 75.8408 43.2766L70.9903 50.6484C61.2466 65.5162 58.7785 68.9026 53.9066 74.4913C45.3835 84.3141 38.0918 88 28.4925 88C17.1052 88 9.90443 83.7567 5.47155 77.3617C1.80425 72.1508 0.0161133 65.3135 0.0161133 57.5225L16.6448 58.0524Z" fill="#0081FB"/>
<path d="M13.1274 17.1853C20.7511 7.07225 31.753 0 44.3717 0C51.6796 0 58.9445 1.84293 66.5308 7.19204C74.829 13.0203 83.6627 22.6174 94.7074 38.4343L98.6638 44.1106C108.215 57.8036 113.654 64.8436 116.829 68.1701C120.919 72.4364 123.789 73.6989 127.504 73.6989C136.943 73.6989 139.282 66.235 139.282 57.693L153.952 57.2968C153.952 66.2258 151.906 72.7866 148.427 77.9698C145.102 82.9918 138.528 88 127.504 88C120.651 88 114.58 86.7192 107.867 81.2687C102.706 77.0852 96.6722 69.6536 92.0305 62.973L78.2233 43.1246C71.2956 33.1636 64.9407 25.7365 61.2627 22.3916C57.301 18.7564 52.2203 14.3887 44.104 14.3887C37.535 14.3887 31.9565 18.3556 27.288 24.4235L13.1274 17.1853Z" fill="url(#paint0_linear_117_39132)"/>
<path d="M44.104 14.3887C37.535 14.3887 31.9564 18.3556 27.2879 24.4235C20.6868 32.9977 16.6448 45.7692 16.6448 58.0523C16.6448 63.1204 17.935 66.9952 19.6214 69.3449L5.44478 77.3617C1.80425 72.1508 0.0161133 65.3135 0.0161133 57.5225C0.0161133 43.355 4.53465 28.5885 13.1274 17.1853C20.7511 7.07225 31.7529 0 44.3717 0L44.104 14.3887Z" fill="url(#paint1_linear_117_39132)"/>
</g>
<defs>
<linearGradient id="paint0_linear_117_39132" x1="33.3913" y1="41.7194" x2="139.3" y2="47.9349" gradientUnits="userSpaceOnUse">
<stop stop-color="#0064E1"/>
<stop offset="0.4" stop-color="#0064E1"/>
<stop offset="0.83" stop-color="#0073EE"/>
<stop offset="1" stop-color="#0082FB"/>
</linearGradient>
<linearGradient id="paint1_linear_117_39132" x1="22.1912" y1="64.0419" x2="22.1912" y2="30.4084" gradientUnits="userSpaceOnUse">
<stop stop-color="#0082FB"/>
<stop offset="1" stop-color="#0064E0"/>
</linearGradient>
<clipPath id="clip0_117_39132">
<rect width="154" height="88" fill="white"/>
</clipPath>
</defs>
</svg>
