<svg width="122" height="101" viewBox="0 0 122 101" fill="none" xmlns="http://www.w3.org/2000/svg">
<g clip-path="url(#clip0_117_17)">
<path d="M106.979 50.5C106.979 78.1988 84.2122 100.995 56.5465 100.995C28.8816 100.995 6.11377 78.1975 6.11377 50.5C6.11377 22.7996 28.3492 0.00463867 56.5465 0.00463867C83.6772 0.00463867 106.979 22.8009 106.979 50.5Z" fill="#0F3A97"/>
<path d="M67.9219 77.0765C89.4683 85.9604 85.7299 63.5114 74.2444 46.3219C67.7346 36.5838 59.245 28.4702 53.8904 24.5549C36.1359 11.5675 25.1755 19.4445 37.7127 45.0574C41.7663 53.3386 46.9726 58.9278 51.039 64.1959C54.1444 68.218 60.1932 70.2318 58.0625 72.1393C55.661 74.2916 49.847 64.7995 49.847 64.7995C45.5531 59.6093 41.4601 54.0711 37.2419 46.4702C27.6048 29.111 28.9944 11.3931 46.4392 19.111C61.2436 25.6642 75.3842 44.0441 81.0703 57.0966C83.6958 63.1243 90.8553 86.9703 68.0523 77.329" fill="white"/>
<path d="M0.919922 65.4685C10.3987 59.1416 19.3857 55.0565 34.6793 49.9933C56.1701 42.8776 72.3443 38.0947 92.1911 28.0968C101.075 23.6225 116.488 13.5882 122 4.86548C120.35 8.24155 115.237 14.8128 112.924 17.7187C85.9974 51.5107 28.6404 49.5946 1.29842 65.8175" fill="#F7410A"/>
<path d="M14.6711 40.7708C23.3463 40.839 22.4952 40.7533 22.5965 40.8553C22.7479 40.8553 29.5233 52.5494 29.5233 52.651C29.5233 52.7003 29.4729 48.4948 29.4729 43.2348C29.4729 42.6273 27.8053 40.8557 27.8549 40.8557C30.3312 40.8557 33.5675 40.9063 33.5675 40.9063C32.355 42.3239 32.1125 42.2068 32.1023 43.0834C32.0681 45.8997 32.0364 51.1061 32.1023 56.953C32.1117 57.8296 32.7596 58.1682 33.8216 59.6869H25.8829C23.3043 55.3841 18.5793 47.3121 18.6028 47.3357C18.6391 47.3725 18.501 52.3989 18.6524 56.4476C18.7033 57.7854 19.3102 58.2192 20.423 59.4349C20.423 59.4349 21.7031 59.4006 14.2036 59.485C16.4789 58.2698 16.1765 56.7515 16.1757 56.7009C16.094 51.1061 16.1586 46.3228 16.1586 43.2348C16.1586 42.7285 16.1244 42.7787 14.5577 40.8553M41.7958 49.4112C42.5241 46.8766 43.1464 44.6116 43.4419 43.134C43.492 42.8807 42.8859 41.9698 41.9254 41.0585L41.8574 40.917C46.4896 40.932 51.3289 40.9582 51.3289 40.9582C52.5931 44.0453 55.4745 52.7016 57.6488 58.0177C58.2236 59.4216 59.2163 59.6878 59.2163 59.6878C55.2726 59.6376 47.954 59.6719 47.9929 59.6376C49.9641 57.8647 49.7114 57.8647 48.8517 55.2851H42.6841C41.4198 58.2205 43.078 59.5982 43.2901 59.5875C41.8864 59.6603 37.1224 59.5875 37.1224 59.5875C39.701 57.764 39.5487 57.2076 39.5487 57.2076C40.257 54.6819 41.0777 51.915 41.7962 49.4108L44.3268 49.4112L43.2396 52.9039H48.1452L45.4144 45.9177L44.3272 49.4104L41.7966 49.4099M84.1666 49.6641C84.8937 47.1304 85.5164 44.8645 85.8119 43.3869C85.8615 43.134 85.2547 42.2231 84.2945 41.311L84.2265 41.1704C88.8601 41.1854 93.7002 41.2111 93.7002 41.2111C94.9623 44.2991 97.8445 52.9545 100.018 58.2706C100.592 59.6762 101.584 59.9407 101.584 59.9407C97.643 59.8905 90.324 59.9248 90.3621 59.8905C92.3337 58.1189 92.0818 58.1189 91.2222 55.538H85.0532C83.789 58.4738 85.4463 59.8511 85.6584 59.8412C84.256 59.9132 79.4907 59.8412 79.4907 59.8412C82.0693 58.0186 81.9183 57.4613 81.9183 57.4613C82.6265 54.9349 83.4468 52.1692 84.1666 49.6641H86.6968C86.1519 51.4117 85.6105 53.1581 85.6105 53.1581H90.5135L87.7827 46.171C87.7827 46.171 87.2408 47.9169 86.6968 49.6633L84.1666 49.6641ZM76.1907 45.5148C76.0902 41.9184 76.1907 40.755 76.1907 40.755C74.6228 42.0212 75.4145 41.8596 71.4896 41.2106C60.1799 39.3404 59.3181 49.9226 65.4729 52.2961C70.6393 54.2893 72.4694 54.6802 71.691 56.5479C71.4383 57.1574 66.7367 59.3838 61.8833 54.8778L61.9821 61.1555C62.5894 60.5292 64.2587 59.3839 64.2587 59.3839C64.3079 59.3839 69.5192 61.6844 74.2178 59.2827C81.4487 55.5881 77.8399 49.6071 70.1231 47.2349C63.7014 45.2606 69.769 40.6534 76.1385 45.5645M57.2566 4.59034C57.2563 4.69945 57.2129 4.80401 57.136 4.88125C57.0591 4.95848 56.9549 5.00214 56.846 5.0027C56.7372 5.00203 56.633 4.95834 56.5562 4.88112C56.4793 4.80391 56.4359 4.69942 56.4355 4.59034C56.4355 4.36658 56.6215 4.17969 56.846 4.17969C56.9547 4.18003 57.0588 4.22337 57.1357 4.30029C57.2126 4.3772 57.2561 4.48145 57.2566 4.59034ZM60.105 10.8238C60.105 11.1016 59.8749 11.3309 59.5995 11.3309C59.4654 11.3304 59.337 11.2768 59.2422 11.1818C59.1474 11.0868 59.0938 10.9582 59.0931 10.8238C59.0931 10.5469 59.3215 10.3184 59.5995 10.3184C59.8753 10.3184 60.105 10.5465 60.105 10.8238ZM67.4946 21.0112C67.4946 21.2881 67.2679 21.5174 66.9886 21.5174C66.8549 21.5165 66.7269 21.4629 66.6323 21.3682C66.5377 21.2735 66.4841 21.1452 66.4831 21.0112C66.4831 20.7334 66.6948 20.5037 66.9732 20.5037C67.2521 20.5045 67.4946 20.7334 67.4946 21.0112ZM55.6143 14.3358C55.6139 14.4447 55.5704 14.5491 55.4935 14.6261C55.4166 14.7031 55.3124 14.7465 55.2037 14.7469C55.0949 14.7465 54.9907 14.7031 54.9136 14.6262C54.8366 14.5492 54.793 14.4448 54.7923 14.3358C54.7923 14.1107 54.9783 13.9243 55.2037 13.9243C55.3125 13.9246 55.4168 13.9681 55.4937 14.0452C55.5706 14.1223 55.614 14.2267 55.6143 14.3358ZM60.0409 16.6775C60.0401 16.7863 59.9966 16.8903 59.9198 16.9672C59.8431 17.044 59.7392 17.0875 59.6307 17.0882C59.5221 17.0876 59.4181 17.0442 59.3412 16.9673C59.2642 16.8905 59.2206 16.7864 59.2197 16.6775C59.2197 16.4525 59.4057 16.2664 59.6307 16.2664C59.8552 16.2664 60.0409 16.4525 60.0409 16.6775ZM54.2885 10.1273C54.2885 10.405 54.0601 10.6344 53.783 10.6344C53.5058 10.6344 53.2774 10.4063 53.2774 10.1273C53.2774 9.85035 53.5058 9.62059 53.783 9.62059C54.0601 9.62059 54.2885 9.84949 54.2885 10.1273ZM47.5909 14.2093C47.5909 14.4352 47.4057 14.6208 47.1799 14.6208C47.0712 14.6203 46.9671 14.5767 46.8902 14.4997C46.8133 14.4226 46.7699 14.3183 46.7693 14.2093C46.7693 13.9843 46.955 13.7978 47.1799 13.7978C47.2887 13.7982 47.393 13.8416 47.47 13.9187C47.547 13.9958 47.5905 14.1003 47.5909 14.2093ZM48.7884 15.0311C48.788 15.1403 48.7445 15.2449 48.6674 15.3221C48.5904 15.3994 48.486 15.443 48.377 15.4434C48.2681 15.4429 48.1637 15.3992 48.0867 15.322C48.0097 15.2448 47.9661 15.1402 47.9656 15.0311C47.9704 14.9249 48.0159 14.8248 48.0925 14.7514C48.1691 14.678 48.271 14.6371 48.377 14.6371C48.483 14.6371 48.5849 14.678 48.6615 14.7514C48.7382 14.8248 48.7836 14.9249 48.7884 15.0311ZM49.9902 15.8541C49.9899 15.9632 49.9466 16.0677 49.8697 16.145C49.7928 16.2222 49.6885 16.2659 49.5797 16.2664C49.4708 16.2659 49.3665 16.2222 49.2895 16.145C49.2125 16.0678 49.1691 15.9632 49.1687 15.8541C49.1687 15.6299 49.3547 15.4438 49.5797 15.4438C49.805 15.4438 49.9902 15.6295 49.9902 15.8541ZM48.1597 17.4367C48.1586 17.5456 48.1149 17.6497 48.0379 17.7267C47.961 17.8037 47.857 17.8473 47.7483 17.8482C47.6395 17.8476 47.5353 17.8041 47.4583 17.7271C47.3813 17.65 47.3377 17.5457 47.3369 17.4367C47.3369 17.2116 47.5225 17.0256 47.7483 17.0256C47.9728 17.0256 48.1597 17.2116 48.1597 17.4367ZM38.6155 24.1438C38.6148 24.2528 38.5712 24.3571 38.4941 24.434C38.4171 24.5109 38.3128 24.5542 38.2041 24.5545C37.9787 24.5545 37.7931 24.3693 37.7931 24.1438C37.7931 23.9183 37.9791 23.7319 38.2041 23.7319C38.429 23.7319 38.6155 23.9179 38.6155 24.1438ZM40.3844 26.2961C40.3835 26.405 40.3399 26.5091 40.263 26.5861C40.1861 26.663 40.0821 26.7065 39.9734 26.7072C39.8647 26.7065 39.7606 26.663 39.6837 26.5861C39.6067 26.5092 39.563 26.405 39.562 26.2961C39.562 26.0697 39.748 25.8846 39.9734 25.8846C40.1988 25.8846 40.3844 26.0697 40.3844 26.2961ZM38.9782 61.0363C38.9775 61.1453 38.934 61.2496 38.857 61.3265C38.78 61.4035 38.6759 61.4469 38.5672 61.4474C38.3418 61.4474 38.1566 61.2614 38.1566 61.0363C38.1566 60.8113 38.3418 60.6244 38.5672 60.6244C38.793 60.6244 38.9782 60.8113 38.9782 61.0363ZM39.2309 70.6206C39.2309 70.8983 39.0026 71.1272 38.7254 71.1272C38.4483 71.1272 38.2199 70.8996 38.2199 70.6206C38.2199 70.3437 38.4483 70.1148 38.7254 70.1148C38.8591 70.1154 38.9872 70.1689 39.0818 70.2636C39.1765 70.3583 39.23 70.4865 39.2309 70.6206ZM33.7946 75.5295C33.7938 75.6383 33.7504 75.7423 33.6736 75.8192C33.5968 75.896 33.493 75.9395 33.3845 75.9402C33.2759 75.9396 33.1718 75.8962 33.0949 75.8193C33.018 75.7425 32.9744 75.6384 32.9735 75.5295C32.9735 75.3028 33.1595 75.1176 33.3845 75.1176C33.609 75.1176 33.7946 75.3023 33.7946 75.5295ZM27.2861 77.5176C27.2852 77.6519 27.2315 77.7803 27.1367 77.8752C27.0419 77.97 26.9137 78.0236 26.7797 78.0243C26.6458 78.0238 26.5175 77.9703 26.4228 77.8754C26.3281 77.7805 26.2746 77.6519 26.2742 77.5176C26.2742 77.2403 26.5026 77.0109 26.7797 77.0109C26.9136 77.0117 27.0418 77.0653 27.1366 77.1602C27.2314 77.255 27.2851 77.3834 27.2861 77.5176ZM25.9586 73.09C25.9586 73.3665 25.7302 73.5954 25.4539 73.5954C25.3202 73.5948 25.1922 73.5413 25.0976 73.4467C25.003 73.3521 24.9494 73.224 24.9484 73.09C24.9489 72.9557 25.0023 72.827 25.097 72.7319C25.1916 72.6368 25.3199 72.583 25.4539 72.5821C25.7302 72.5834 25.9586 72.8119 25.9586 73.09ZM25.2011 75.9063C25.2011 76.1322 25.0151 76.3174 24.7901 76.3174C24.5652 76.3174 24.3787 76.1322 24.3787 75.9063C24.3787 75.6821 24.5652 75.4948 24.7901 75.4948C25.0151 75.4948 25.2011 75.6808 25.2011 75.9063ZM20.3336 73.5663C20.333 73.675 20.2896 73.7791 20.2129 73.8561C20.1362 73.933 20.0324 73.9766 19.9239 73.9774C19.8152 73.9769 19.711 73.9335 19.6339 73.8565C19.5569 73.7796 19.5133 73.6753 19.5125 73.5663C19.5125 73.3421 19.6981 73.1552 19.9239 73.1552C20.148 73.1552 20.3336 73.3408 20.3336 73.5663ZM37.3342 81.4745C37.3342 81.7004 37.1644 81.8864 36.9398 81.8864C36.7144 81.8864 36.5126 81.7004 36.5126 81.4745C36.5126 81.2495 36.6986 81.063 36.9231 81.063C37.1494 81.063 37.3342 81.249 37.3342 81.4745ZM42.4544 77.7109C42.4544 77.9887 42.2423 78.2185 41.9643 78.2185C41.6871 78.2185 41.4434 77.99 41.4434 77.7109C41.4434 77.434 41.6717 77.2051 41.9489 77.2051C42.0826 77.2058 42.2107 77.2593 42.3053 77.354C42.3999 77.4487 42.4535 77.5769 42.4544 77.7109ZM43.0403 82.5504C43.0403 82.7763 42.838 82.9632 42.6139 82.9632C42.505 82.9626 42.4006 82.9188 42.3236 82.8416C42.2466 82.7643 42.2031 82.6597 42.2025 82.5504C42.2025 82.3262 42.3881 82.1402 42.6139 82.1402C42.838 82.1398 43.0403 82.325 43.0403 82.5504ZM64.0825 77.9296C64.0817 78.0383 64.0383 78.1425 63.9617 78.2195C63.8851 78.2966 63.7813 78.3404 63.6728 78.3415C63.5639 78.3408 63.4596 78.2972 63.3824 78.2202C63.3053 78.1431 63.2615 78.0387 63.2605 77.9296C63.2605 77.7037 63.4461 77.5185 63.6728 77.5185C63.8969 77.5185 64.0825 77.7037 64.0825 77.9296ZM54.2885 81.4098C54.288 81.5187 54.2446 81.6231 54.1677 81.7001C54.0908 81.7771 53.9866 81.8205 53.8779 81.8209C53.7693 81.8203 53.6652 81.7768 53.5884 81.6999C53.5115 81.6229 53.468 81.5187 53.4673 81.4098C53.4673 81.1856 53.6534 80.9987 53.8779 80.9987C54.1037 80.9987 54.2885 81.1847 54.2885 81.4098ZM80.6429 86.4122C80.642 86.5211 80.5984 86.6252 80.5215 86.7022C80.4446 86.7791 80.3406 86.8226 80.2319 86.8233C80.1231 86.8228 80.0189 86.7794 79.9418 86.7025C79.8647 86.6255 79.8209 86.5212 79.8201 86.4122C79.8201 86.1876 80.0065 86.0011 80.2319 86.0011C80.4565 86.0011 80.6429 86.1867 80.6429 86.4122ZM82.7895 66.9517C82.7887 67.0861 82.7351 67.2146 82.6403 67.3096C82.5455 67.4045 82.4171 67.4582 82.2831 67.4588C82.1491 67.458 82.0209 67.4044 81.9262 67.3094C81.8315 67.2145 81.7779 67.086 81.7771 66.9517C81.7771 66.674 82.0051 66.4446 82.2831 66.4446C82.4171 66.4452 82.5456 66.4988 82.6404 66.5938C82.7352 66.6887 82.7888 66.8174 82.7895 66.9517ZM78.7478 69.7037C78.7471 69.8128 78.7034 69.9173 78.6263 69.9944C78.5492 70.0715 78.4449 70.1151 78.336 70.1156C78.1119 70.1156 77.9258 69.9292 77.9258 69.7037C77.9258 69.4782 78.1119 69.293 78.336 69.293C78.5618 69.293 78.7478 69.4778 78.7478 69.7037ZM82.7305 70.4967C82.7305 70.774 82.5025 71.0042 82.2241 71.0042C81.9456 71.0042 81.7177 70.7753 81.7177 70.4967C81.7177 70.2198 81.9456 69.99 82.2241 69.99C82.5025 69.99 82.7305 70.2198 82.7305 70.4967ZM78.7478 75.4005C78.7471 75.5096 78.7034 75.6139 78.6262 75.6909C78.5491 75.7679 78.4448 75.8112 78.336 75.8116C78.2274 75.8108 78.1236 75.7672 78.0468 75.6903C77.9701 75.6134 77.9266 75.5093 77.9258 75.4005C77.9258 75.1746 78.1119 74.9886 78.336 74.9886C78.5618 74.9886 78.7478 75.1742 78.7478 75.4005ZM89.0465 64.1998C89.0465 64.4244 88.8596 64.6113 88.6355 64.6113C88.5269 64.6104 88.4231 64.5667 88.3463 64.4897C88.2696 64.4127 88.2262 64.3086 88.2254 64.1998C88.2254 63.9743 88.411 63.7891 88.6355 63.7891C88.86 63.7891 89.0465 63.9743 89.0465 64.1998ZM90.043 66.6988C90.043 66.9762 89.8322 67.2059 89.5538 67.2059C89.2762 67.2059 89.032 66.9774 89.032 66.6988C89.032 66.4211 89.2599 66.1926 89.5371 66.1926C89.8151 66.1934 90.043 66.4211 90.043 66.6988ZM97.1383 69.6737C97.1383 69.951 96.9125 70.1804 96.6324 70.1804C96.4984 70.1799 96.37 70.1264 96.2751 70.0315C96.1803 69.9366 96.1267 69.808 96.126 69.6737C96.1268 69.5394 96.1804 69.4108 96.2752 69.3158C96.37 69.2209 96.4984 69.1673 96.6324 69.1666C96.7664 69.167 96.8949 69.2206 96.9897 69.3156C97.0844 69.4106 97.1379 69.5393 97.1383 69.6737ZM89.9314 74.9594C89.9304 75.0684 89.8866 75.1726 89.8095 75.2496C89.7325 75.3265 89.6283 75.3699 89.5195 75.3705C89.4109 75.3699 89.3068 75.3265 89.2298 75.2495C89.1529 75.1726 89.1093 75.0683 89.1085 74.9594C89.1085 74.7335 89.295 74.5475 89.5195 74.5475C89.7441 74.5475 89.9314 74.7322 89.9314 74.9594ZM94.4824 70.6553C94.4818 70.7642 94.4385 70.8684 94.3617 70.9454C94.2849 71.0223 94.1809 71.0658 94.0723 71.0664C93.9636 71.0657 93.8597 71.0222 93.7828 70.9453C93.706 70.8683 93.6625 70.7642 93.6617 70.6553C93.6617 70.4307 93.8486 70.2438 94.0723 70.2438C94.2968 70.2438 94.4824 70.4294 94.4824 70.6553ZM93.6441 77.2994C93.6436 77.4083 93.6002 77.5125 93.5234 77.5895C93.4466 77.6665 93.3426 77.7099 93.234 77.7105C93.1251 77.7103 93.0208 77.667 92.9436 77.59C92.8665 77.513 92.8228 77.4085 92.8221 77.2994C92.8221 77.0752 93.0078 76.8879 93.234 76.8879C93.4585 76.8879 93.6441 77.074 93.6441 77.2994ZM95.573 66.2573C95.573 66.6049 95.2873 66.89 94.9405 66.89C94.594 66.89 94.3088 66.6049 94.3088 66.2573C94.3088 65.9101 94.594 65.625 94.9405 65.625C95.2873 65.625 95.573 65.9101 95.573 66.2573Z" fill="white"/>
<path d="M94.9392 64.3284L94.7515 66.0683L93.0292 66.2586L94.7664 66.4472L94.9563 68.2514L95.1462 66.4472L96.8518 66.2252L95.1308 66.067L94.9392 64.3284ZM91.1465 77.2647C91.1465 77.6128 90.8612 77.8987 90.5144 77.8987C90.3468 77.898 90.1863 77.831 90.0679 77.7123C89.9494 77.5935 89.8825 77.4326 89.8818 77.2647C89.8818 76.9175 90.1675 76.6324 90.5144 76.6324C90.6816 76.6331 90.8418 76.6999 90.9602 76.8183C91.0785 76.9367 91.1455 77.0971 91.1465 77.2647Z" fill="white"/>
<path d="M90.5181 75.3356L90.3282 77.0764L88.6067 77.2654L90.344 77.4558L90.5343 79.2583L90.7242 77.4558L92.429 77.2337L90.7067 77.0751L90.5181 75.3356ZM44.0025 24.9971C44.0025 25.3443 43.7173 25.6298 43.3708 25.6298C43.2034 25.6294 43.043 25.5626 42.9245 25.4441C42.806 25.3256 42.7391 25.1649 42.7383 24.9971C42.7383 24.6491 43.0231 24.364 43.3708 24.364C43.7173 24.3649 44.0025 24.6499 44.0025 24.9971Z" fill="white"/>
<path d="M43.3696 23.0676L43.1798 24.8075L41.457 24.9978L43.1951 25.186L43.385 26.991L43.5741 25.186L45.2805 24.9656L43.5578 24.8066L43.3696 23.0676ZM67.5121 9.685C67.5121 10.0322 67.2264 10.3181 66.8795 10.3181C66.5327 10.3181 66.2483 10.0322 66.2483 9.685C66.2483 9.33694 66.5323 9.05103 66.8795 9.05103C67.2268 9.05103 67.5121 9.33779 67.5121 9.685Z" fill="white"/>
<path d="M66.8795 7.75342L66.6914 9.49461L64.9695 9.68493L66.7072 9.87397L66.8954 11.6777L67.0853 9.87397L68.7909 9.65192L67.0686 9.49375L66.8795 7.75342ZM38.9303 87.3943C38.9303 87.7423 38.645 88.0274 38.2986 88.0274C38.1311 88.0268 37.9707 87.96 37.8522 87.8414C37.7337 87.7228 37.6668 87.5621 37.666 87.3943C37.666 87.0475 37.9513 86.7607 38.2986 86.7607C38.645 86.7611 38.9303 87.0479 38.9303 87.3943Z" fill="white"/>
<path d="M38.3132 85.4614L38.1241 87.2026L36.4019 87.3921L38.1395 87.5811L38.329 89.3849L38.518 87.5811L40.2245 87.3599L38.5027 87.2013L38.3132 85.4614Z" fill="white"/>
<path d="M121.995 4.86597C114.309 27.7183 83.5207 45.3647 57.603 62.21C41.9672 72.3763 26.4435 84.0773 15.7565 94.0332C12.9397 96.6587 16.3304 93.0512 15.2509 94.1601C30.1652 76.9492 47.3214 66.6975 56.8019 60.2442C72.8354 49.3268 81.955 46.5753 109.617 21.0382" fill="#F7410A"/>
<path d="M7.33054 61.4822C4.57025 62.8346 2.0978 64.1716 0 65.4768L1.27621 65.9423C3.11099 64.8102 5.31357 63.6293 7.63377 62.589M21.9027 87.0552C19.2765 89.3504 16.6939 91.695 14.156 94.0877L14.0405 95.8328C16.4355 93.359 19.3776 90.6898 22.773 87.8564" fill="#EE293D"/>
<path d="M67.9221 77.0766C89.4685 85.9604 85.73 63.5114 74.2445 46.3219C67.7343 36.5838 59.7066 28.8586 53.8901 24.5549C47.0985 19.529 46.4355 19.1123 46.4355 19.1123C61.6021 26.327 75.3805 44.0449 81.0657 57.0983C83.6921 63.1256 90.8512 86.9716 68.0478 77.3303" fill="white"/>
</g>
<defs>
<clipPath id="clip0_117_17">
<rect width="122" height="101" fill="white"/>
</clipPath>
</defs>
</svg>
