<svg width="175" height="56" viewBox="0 0 175 56" fill="none" xmlns="http://www.w3.org/2000/svg">
<g clip-path="url(#clip0_221_475)">
<path d="M72.4404 36.4132H68.4286V45.037H64.0752V20.3694H72.4292C74.3027 20.3694 75.8199 20.7106 76.9806 21.3934C78.1418 22.0758 78.9922 23.0214 79.5322 24.2298C80.0722 25.4383 80.3423 26.8296 80.3423 28.4034C80.3423 30.804 79.714 32.7392 78.4576 34.2089C77.2012 35.6786 75.1955 36.4132 72.44 36.4132H72.4404ZM68.4286 24.3684V32.4625H72.44C73.7699 32.4625 74.7015 32.0706 75.2339 31.2881C75.7663 30.5056 76.0332 29.5433 76.0332 28.4034C76.0332 27.263 75.7652 26.3055 75.2284 25.5305C74.6924 24.7559 73.7591 24.3684 72.4292 24.3684H68.4286ZM84.0011 24.9945C83.3031 24.9945 82.719 24.7515 82.2488 24.2662C81.7787 23.7802 81.5433 23.1959 81.5433 22.5135C81.5433 21.8549 81.7787 21.2766 82.2488 20.779C82.719 20.2811 83.3031 20.0321 84.0011 20.0321C84.6993 20.0321 85.2759 20.2811 85.7315 20.779C86.1872 21.2766 86.4146 21.8549 86.4146 22.5135C86.4146 23.1959 86.1872 23.7802 85.7315 24.2658C85.2759 24.7515 84.6993 24.9945 84.0011 24.9945ZM86.1281 26.5363V45.037H81.8519V26.5363H86.1281ZM92.7299 26.5363L95.6722 32.5587L98.6812 26.5363H103.123L98.3393 35.7866L103.244 45.037H98.8025L95.6722 39.1713L92.5756 45.0373H88.1118L92.983 35.787L88.266 26.5367L92.7299 26.5363ZM111.829 45.3865C110.132 45.3865 108.671 45.0069 107.448 44.2481C106.225 43.4893 105.283 42.4115 104.621 41.0142C103.96 39.617 103.63 37.9545 103.63 36.0277C103.63 34.1487 103.945 32.4764 104.577 31.011C105.209 29.5453 106.124 28.3931 107.322 27.5539C108.519 26.7148 109.963 26.2952 111.653 26.2952C113.086 26.2952 114.373 26.6245 115.515 27.2832C116.658 27.9414 117.562 28.9294 118.227 30.2463C118.892 31.5632 119.224 33.209 119.224 35.1846V37.1478H107.762C107.902 38.5209 108.304 39.5988 108.969 40.3817C109.634 41.1646 110.576 41.5561 111.796 41.5561C112.817 41.5561 113.585 41.3012 114.099 40.7914C114.614 40.2816 114.985 39.6811 115.213 38.9904L119.048 40.1228C118.842 40.9738 118.451 41.8011 117.874 42.6042C117.297 43.407 116.511 44.0715 115.515 44.5976C114.52 45.1232 113.291 45.3865 111.829 45.3865ZM111.62 30.0896C110.635 30.0896 109.823 30.4268 109.184 31.1013C108.545 31.7758 108.112 32.7194 107.884 33.9318H115.169C115.169 32.8397 114.858 31.9262 114.237 31.1915C113.616 30.4569 112.744 30.0896 111.62 30.0896ZM125.616 20.3694V45.037H121.34V20.3694H125.616ZM129.595 45.037V30.0052H127.313V26.5363H129.595V25.7894C129.595 23.8463 130.104 22.4011 131.121 21.4535C132.139 20.5059 133.397 20.0321 134.896 20.0321C135.624 20.0321 136.259 20.0943 136.803 20.219C137.347 20.3436 137.754 20.4537 138.026 20.5503L137.21 24.1154C136.995 24.0446 136.776 23.9864 136.555 23.9409C136.291 23.8869 136.024 23.8607 135.756 23.8625C134.499 23.8625 133.871 24.577 133.871 26.0063V26.5367H137.21V30.0052H133.871V45.037H129.595ZM146.071 45.3865C144.374 45.3865 142.914 45.0069 141.69 44.2481C140.467 43.4893 139.525 42.4115 138.864 41.0142C138.202 39.617 137.872 37.9545 137.872 36.0277C137.872 34.1487 138.188 32.4764 138.819 31.011C139.451 29.5453 140.366 28.3931 141.564 27.5539C142.761 26.7148 144.205 26.2952 145.895 26.2952C147.328 26.2952 148.615 26.6245 149.758 27.2832C150.9 27.9414 151.804 28.9294 152.469 30.2463C153.134 31.5632 153.466 33.209 153.466 35.1846V37.1478H142.004C142.144 38.5209 142.547 39.5988 143.211 40.3817C143.876 41.1646 144.818 41.5561 146.038 41.5561C147.06 41.5561 147.827 41.3012 148.342 40.7914C148.856 40.2816 149.227 39.6811 149.455 38.9904L153.29 40.1228C153.084 40.9738 152.693 41.8011 152.116 42.6042C151.539 43.407 150.753 44.0715 149.758 44.5976C148.762 45.1232 147.533 45.3865 146.071 45.3865ZM145.862 30.0896C144.877 30.0896 144.065 30.4268 143.426 31.1013C142.787 31.7758 142.353 32.7194 142.126 33.9318H149.41C149.41 32.8397 149.1 31.9262 148.479 31.1915C147.859 30.4569 146.986 30.0896 145.862 30.0896ZM170.328 45.037H166.107V42.8449H165.876C165.59 43.4873 165.102 44.0676 164.415 44.5853C163.729 45.1035 162.827 45.3623 161.71 45.3623C160.446 45.3623 159.305 44.995 158.288 44.2604C157.27 43.5257 156.462 42.4475 155.863 41.0265C155.265 39.6047 154.965 37.8623 154.965 35.7989C154.965 33.7188 155.272 31.9725 155.885 30.5594C156.498 29.1463 157.318 28.082 158.343 27.3675C159.368 26.6526 160.494 26.2956 161.721 26.2956C162.853 26.2956 163.756 26.5584 164.432 27.0845C165.108 27.6101 165.589 28.1904 165.876 28.8249H166.052V20.3694H170.328V45.037ZM159.043 35.7866C159.043 37.5132 159.361 38.9065 159.996 39.9665C160.632 41.0261 161.578 41.5561 162.834 41.5561C163.708 41.5561 164.412 41.3012 164.945 40.7914C165.477 40.2816 165.863 39.5889 166.102 38.7133C166.341 37.8385 166.46 36.8629 166.46 35.7866C166.46 34.1566 166.183 32.7997 165.628 31.7156C165.074 30.6314 164.142 30.0896 162.834 30.0896C161.57 30.0896 160.623 30.6093 159.991 31.6491C159.359 32.6893 159.043 34.0684 159.043 35.7866Z" fill="#0B0F19"/>
<path d="M32.9916 32.1657C29.7749 27.3556 23.6225 26.2534 19.2508 29.7035C14.879 33.1536 13.9428 39.8498 17.16 44.6598L17.4033 45.024C12.1569 37.5248 11.8988 27.0052 17.1289 19.2966L17.222 19.1613C20.4623 14.4556 26.6192 13.5519 30.9739 17.1434C35.3285 20.7343 36.2318 27.4603 32.9916 32.1657Z" fill="url(#paint0_linear_221_475)"/>
<path d="M32.9914 32.1657C27.8701 34.0587 25.1761 40.1403 26.9742 45.7488C28.7723 51.3573 34.3822 54.3693 39.5036 52.4763L39.8426 52.3506C33.4739 54.8411 26.054 53.6434 20.4482 48.5027C19.2955 47.4455 18.2798 46.2769 17.4031 45.024L17.1596 44.6601C13.9428 39.85 14.8786 33.1539 19.2505 29.7035C23.6225 26.2536 29.7744 27.3559 32.9914 32.1657Z" fill="url(#paint1_linear_221_475)"/>
<path d="M32.9917 32.1657C33.0244 38.0852 37.4513 42.9127 42.8793 42.9486C48.307 42.9848 52.6803 38.2155 52.6474 32.2963L52.6465 32.1607C52.7047 37.071 51.224 42.0083 48.1254 46.0441C45.8439 49.0156 42.9703 51.1278 39.8429 52.3506L39.5036 52.4761C34.3822 54.3691 28.7729 51.3576 26.9745 45.7488C25.1764 40.1403 27.8704 34.0588 32.9917 32.1657Z" fill="url(#paint2_linear_221_475)"/>
<path d="M32.9916 32.1657C38.1638 34.0292 43.6909 30.9851 45.337 25.3661C46.9828 19.7484 44.1241 13.683 38.9517 11.8198L38.5282 11.667C41.0203 12.4964 43.4079 13.8788 45.5345 15.829C50.154 20.0652 52.5743 26.093 52.6462 32.161L52.647 32.296C52.68 38.2157 48.3066 42.9851 42.8787 42.9492C37.4507 42.9127 33.0241 38.0855 32.9911 32.1663L32.9916 32.1657Z" fill="url(#paint3_linear_221_475)"/>
<path d="M32.9916 32.1659C36.2322 27.4599 35.3285 20.7339 30.9735 17.1428C26.6186 13.5516 20.4623 14.4557 17.2222 19.1611L17.1291 19.2965C17.3627 18.9522 17.6056 18.6156 17.8576 18.2873C23.0226 11.5601 31.2253 9.237 38.5287 11.6666L38.9522 11.8194C44.1244 13.6829 46.9832 19.7479 45.3371 25.3669C43.6909 30.9852 38.164 34.0291 32.9916 32.1659Z" fill="url(#paint4_linear_221_475)"/>
<g opacity="0.505">
<path d="M38.8011 11.7651L38.9523 11.8195C44.1245 13.683 46.9833 19.7481 45.3369 25.3668C43.691 30.9854 38.1638 34.0295 32.9914 32.1663C33.4612 31.4851 33.8538 30.7443 34.1606 29.96C37.1834 30.6363 40.4234 29.5446 42.5268 26.8051C45.5967 22.8065 45.0828 16.8112 41.3787 13.4143C40.5872 12.6884 39.7144 12.1397 38.8011 11.7651Z" fill="url(#paint5_linear_221_475)"/>
<path d="M38.801 11.765L38.952 11.8196C44.1243 13.6832 46.9829 19.7479 45.3372 25.3666C43.6911 30.9853 38.1639 34.0292 32.9917 32.166C33.4613 31.4847 33.8538 30.7437 34.1604 29.9593C37.1835 30.6362 40.4236 29.5445 42.5267 26.8046C45.5973 22.8064 45.083 16.8109 41.3786 13.414C40.6112 12.7085 39.7396 12.1509 38.801 11.765Z" fill="black" fill-opacity="0.496"/>
</g>
<g opacity="0.544">
<path d="M52.6199 31.9849L52.6193 32.1589C52.5959 38.1107 48.2011 42.9563 42.8033 42.9823C37.4053 43.0078 33.0483 38.2031 33.0713 32.2515C33.8093 32.5291 34.5753 32.7081 35.3527 32.7846C35.6984 36.1352 37.6496 39.1655 40.6836 40.5051C45.1118 42.4605 50.1702 40.074 51.9817 35.1739C52.3686 34.1272 52.5762 33.05 52.6199 31.9849Z" fill="url(#paint6_linear_221_475)"/>
<path d="M52.6197 31.9843L52.619 32.1585C52.5958 38.1105 48.2012 42.9561 42.8033 42.9814C37.4051 43.0068 33.0481 38.2023 33.0716 32.2507C33.8095 32.5284 34.5754 32.7074 35.3526 32.7839C35.6981 36.1349 37.6492 39.1653 40.6831 40.5052C45.1115 42.4605 50.17 40.0737 51.9812 35.1735C52.3581 34.1577 52.574 33.0793 52.6197 31.9843Z" fill="black" fill-opacity="0.5"/>
</g>
<g opacity="0.562">
<path d="M39.6366 52.3332L39.4856 52.3891C34.3287 54.3027 28.7058 51.3392 26.9263 45.7691C25.1472 40.1993 27.8851 34.1328 33.0419 32.2189C33.0419 33.0719 33.1363 33.9217 33.3231 34.7499C30.5365 36.1983 28.5501 39.2012 28.3789 42.7725C28.1289 47.9851 31.8411 52.4352 36.6699 52.7118C37.7018 52.7709 38.7009 52.6347 39.6366 52.3332Z" fill="url(#paint7_linear_221_475)"/>
<path d="M39.6365 52.3331L39.4859 52.389C34.3289 54.3027 28.7061 51.3392 26.9267 45.7692C25.1473 40.2 27.8854 34.1333 33.042 32.2195C33.0428 33.0915 33.1398 33.9389 33.3235 34.7504C30.5365 36.1983 28.55 39.201 28.379 42.7725C28.1291 47.9854 31.8407 52.4353 36.6696 52.7115C37.7014 52.7709 38.7007 52.6348 39.6365 52.3331Z" fill="black"/>
</g>
<g opacity="0.584">
<path d="M17.0659 44.5875L16.9751 44.4442C13.8705 39.5541 14.9275 32.8299 19.3357 29.4257C23.7441 26.021 29.8346 27.2252 32.9394 32.1152C32.1892 32.3503 31.4677 32.6837 30.7907 33.1083C28.749 30.5799 25.5603 29.3208 22.3719 30.1253C17.7183 31.2995 14.8273 36.4256 15.915 41.5748C16.1475 42.6751 16.5427 43.6872 17.0658 44.5871L17.0659 44.5875Z" fill="url(#paint8_linear_221_475)"/>
<path d="M17.066 44.5877L16.9755 44.4444C13.8706 39.5544 14.9274 32.8302 19.3358 29.4257C23.7442 26.0213 29.8346 27.2254 32.9391 32.1158C32.189 32.3509 31.4676 32.6843 30.7907 33.1089C28.7491 30.5804 25.5605 29.3209 22.3719 30.1256C17.718 31.2996 14.8274 36.4258 15.915 41.5751C16.1396 42.6432 16.5288 43.6623 17.066 44.5877Z" fill="black" fill-opacity="0.503"/>
</g>
<g opacity="0.18">
<path d="M17.1517 19.4394L17.2483 19.3007C20.5444 14.5627 26.7225 13.5835 31.0471 17.1134C35.3722 20.6434 36.2061 27.3462 32.9105 32.0843C32.474 31.3772 31.9608 30.7304 31.382 30.158C32.9516 27.2543 33.0619 23.5509 31.3766 20.4855C28.9168 16.0113 23.5626 14.5904 19.4178 17.3122C18.5321 17.8938 17.7734 18.6174 17.1521 19.4392L17.1517 19.4394Z" fill="url(#paint9_linear_221_475)"/>
<path d="M17.1519 19.4396L17.2486 19.301C20.5444 14.5631 26.7224 13.5834 31.0475 17.1133C35.3722 20.6437 36.2063 27.3461 32.9105 32.0845C32.474 31.3773 31.9608 30.7304 31.3821 30.158C32.9518 27.2543 33.0623 23.551 31.3767 20.4857C28.9168 16.0114 23.5627 14.5904 19.4176 17.3124C18.5574 17.8759 17.7912 18.5952 17.1519 19.4396Z" fill="black" fill-opacity="0.773"/>
</g>
<path d="M31.4418 36.7611H35.0375C38.425 36.7611 41.171 33.8526 41.171 30.2645C41.171 26.6768 38.425 23.7683 35.0375 23.7683H29.8475C27.8936 23.7683 26.3091 25.4466 26.3091 27.5163V42.1035L31.4418 36.7611Z" fill="white"/>
</g>
<defs>
<linearGradient id="paint0_linear_221_475" x1="5582.65" y1="8123.77" x2="-1856.19" y2="2464.83" gradientUnits="userSpaceOnUse">
<stop stop-color="#FF5C34"/>
<stop offset="1" stop-color="#EB0256"/>
</linearGradient>
<linearGradient id="paint1_linear_221_475" x1="2580.65" y1="6365.74" x2="5375.24" y2="5049.01" gradientUnits="userSpaceOnUse">
<stop stop-color="#A63FDB"/>
<stop offset="1" stop-color="#FF257E"/>
</linearGradient>
<linearGradient id="paint2_linear_221_475" x1="-114.89" y1="2645.9" x2="6085.34" y2="7717.37" gradientUnits="userSpaceOnUse">
<stop stop-color="#00FFF0"/>
<stop offset="1" stop-color="#0087FF"/>
</linearGradient>
<linearGradient id="paint3_linear_221_475" x1="6546.63" y1="6442.48" x2="576.475" y2="4837.2" gradientUnits="userSpaceOnUse">
<stop stop-color="#17C934"/>
<stop offset="1" stop-color="#03FF6E"/>
</linearGradient>
<linearGradient id="paint4_linear_221_475" x1="2540.14" y1="6818.1" x2="4235.65" y2="3579.85" gradientUnits="userSpaceOnUse">
<stop stop-color="#FFB000"/>
<stop offset="1" stop-color="#FF7725"/>
</linearGradient>
<linearGradient id="paint5_linear_221_475" x1="1024.97" y1="4065.48" x2="432.393" y2="2081.76" gradientUnits="userSpaceOnUse">
<stop stop-color="#FFB000"/>
<stop offset="1" stop-color="#FF7725"/>
</linearGradient>
<linearGradient id="paint6_linear_221_475" x1="607.385" y1="-5745.63" x2="-5035.01" y2="6766.1" gradientUnits="userSpaceOnUse">
<stop stop-color="#9EE85D"/>
<stop offset="1" stop-color="#0ED061"/>
</linearGradient>
<linearGradient id="paint7_linear_221_475" x1="-2695.09" y1="-2596.3" x2="402.03" y2="-1524.17" gradientUnits="userSpaceOnUse">
<stop stop-color="#21EFE3"/>
<stop offset="1" stop-color="#2598FF"/>
</linearGradient>
<linearGradient id="paint8_linear_221_475" x1="13.3449" y1="-6997.79" x2="3319.62" y2="5520.79" gradientUnits="userSpaceOnUse">
<stop stop-color="#A63FDB"/>
<stop offset="1" stop-color="#FF257E"/>
</linearGradient>
<linearGradient id="paint9_linear_221_475" x1="6126.85" y1="-2192.51" x2="514.442" y2="929.489" gradientUnits="userSpaceOnUse">
<stop stop-color="#FF5C34"/>
<stop offset="1" stop-color="#EB0256"/>
</linearGradient>
<clipPath id="clip0_221_475">
<rect width="175" height="56" fill="white"/>
</clipPath>
</defs>
</svg>
