<svg width="276" height="74" viewBox="0 0 276 74" fill="none" xmlns="http://www.w3.org/2000/svg">
<g clip-path="url(#clip0_117_39136)">
<path d="M114.249 48.1175H107.922V59.5132H101.056V26.9167H114.231C117.186 26.9167 119.579 27.3676 121.409 28.2698C123.241 29.1716 124.582 30.4211 125.434 32.018C126.285 33.6149 126.711 35.4534 126.711 37.533C126.711 40.7053 125.72 43.2625 123.739 45.2046C121.757 47.1467 118.594 48.1175 114.248 48.1175H114.249ZM107.922 32.2011V42.8969H114.248C116.346 42.8969 117.815 42.3791 118.654 41.345C119.494 40.311 119.915 39.0394 119.915 37.533C119.915 36.0261 119.492 34.7609 118.646 33.7367C117.801 32.7131 116.329 32.2011 114.231 32.2011H107.922ZM132.482 33.0285C131.381 33.0285 130.46 32.7074 129.718 32.0661C128.977 31.4238 128.605 30.6518 128.605 29.7501C128.605 28.8797 128.977 28.1155 129.718 27.4581C130.46 26.8001 131.381 26.4711 132.482 26.4711C133.583 26.4711 134.492 26.8001 135.211 27.4581C135.929 28.1155 136.288 28.8797 136.288 29.7501C136.288 30.6518 135.929 31.4238 135.211 32.0656C134.492 32.7074 133.583 33.0285 132.482 33.0285ZM135.836 35.0658V59.5132H129.092V35.0658H135.836ZM146.248 35.0658L150.889 43.024L155.634 35.0658H162.639L155.095 47.2895L162.83 59.5132H155.826L150.889 51.7621L146.005 59.5137H138.965L146.647 47.29L139.208 35.0663L146.248 35.0658ZM176.371 59.975C173.693 59.975 171.39 59.4734 169.461 58.4707C167.532 57.468 166.046 56.0438 165.003 54.1974C163.96 52.351 163.439 50.1542 163.439 47.608C163.439 45.1251 163.937 42.9152 164.933 40.9789C165.93 39.042 167.372 37.5194 169.261 36.4106C171.15 35.3017 173.427 34.7473 176.092 34.7473C178.352 34.7473 180.382 35.1825 182.184 36.0528C183.986 36.9226 185.412 38.2282 186.46 39.9684C187.509 41.7085 188.033 43.8834 188.033 46.4939V49.0883H169.957C170.176 50.9027 170.811 52.327 171.86 53.3616C172.909 54.3962 174.395 54.9135 176.318 54.9135C177.929 54.9135 179.14 54.5766 179.951 53.9029C180.762 53.2292 181.348 52.4358 181.707 51.523L187.756 53.0195C187.431 54.144 186.813 55.2372 185.904 56.2985C184.995 57.3592 183.755 58.2374 182.184 58.9326C180.615 59.6272 178.677 59.975 176.371 59.975ZM176.04 39.7612C174.487 39.7612 173.207 40.2069 172.199 41.0981C171.19 41.9894 170.507 43.2364 170.148 44.8385H181.637C181.637 43.3954 181.148 42.1882 180.168 41.2174C179.189 40.2466 177.813 39.7612 176.04 39.7612ZM198.115 26.9167V59.5132H191.371V26.9167H198.115ZM204.389 59.5132V39.6498H200.791V35.0658H204.39V34.0788C204.39 31.5112 205.192 29.6015 206.797 28.3493C208.402 27.0972 210.386 26.4711 212.75 26.4711C213.898 26.4711 214.899 26.5532 215.757 26.7179C216.615 26.8827 217.258 27.0281 217.686 27.1557L216.4 31.8668C216.06 31.7733 215.715 31.6963 215.366 31.6362C214.951 31.5649 214.529 31.5302 214.106 31.5326C212.124 31.5326 211.134 32.4767 211.134 34.3655V35.0663H216.4V39.6498H211.134V59.5132H204.389ZM230.375 59.975C227.698 59.975 225.395 59.4734 223.466 58.4707C221.536 57.468 220.05 56.0438 219.008 54.1974C217.965 52.351 217.443 50.1542 217.443 47.608C217.443 45.1251 217.942 42.9152 218.938 40.9789C219.935 39.042 221.377 37.5194 223.266 36.4106C225.155 35.3017 227.432 34.7473 230.098 34.7473C232.357 34.7473 234.387 35.1825 236.189 36.0528C237.991 36.9226 239.417 38.2282 240.465 39.9684C241.514 41.7085 242.038 43.8834 242.038 46.4939V49.0883H223.961C224.182 50.9027 224.816 52.327 225.864 53.3616C226.913 54.3962 228.399 54.9135 230.323 54.9135C231.934 54.9135 233.145 54.5766 233.956 53.9029C234.767 53.2292 235.352 52.4358 235.711 51.523L241.76 53.0195C241.436 54.144 240.818 55.2372 239.909 56.2985C238.999 57.3592 237.76 58.2374 236.189 58.9326C234.619 59.6272 232.681 59.975 230.375 59.975ZM230.045 39.7612C228.492 39.7612 227.212 40.2069 226.204 41.0981C225.195 41.9894 224.512 43.2364 224.153 44.8385H235.642C235.642 43.3954 235.152 42.1882 234.173 41.2174C233.194 40.2466 231.818 39.7612 230.045 39.7612ZM268.632 59.5132H261.975V56.6165H261.61C261.158 57.4654 260.39 58.2322 259.307 58.9164C258.224 59.601 256.801 59.9431 255.04 59.9431C253.046 59.9431 251.247 59.4577 249.642 58.4869C248.037 57.5162 246.764 56.0914 245.819 54.2136C244.875 52.3348 244.402 50.0324 244.402 47.3057C244.402 44.5571 244.886 42.2494 245.853 40.3821C246.82 38.5148 248.113 37.1083 249.73 36.1642C251.346 35.2196 253.122 34.7478 255.057 34.7478C256.842 34.7478 258.267 35.0951 259.333 35.7902C260.399 36.4849 261.158 37.2516 261.61 38.0901H261.888V26.9167H268.632V59.5132ZM250.833 47.2895C250.833 49.571 251.334 51.4122 252.337 52.8129C253.339 54.2131 254.831 54.9135 256.813 54.9135C258.192 54.9135 259.301 54.5766 260.141 53.9029C260.981 53.2292 261.59 52.3139 261.966 51.1569C262.343 50.001 262.532 48.7117 262.532 47.2895C262.532 45.1356 262.093 43.3426 261.219 41.9099C260.344 40.4773 258.875 39.7612 256.813 39.7612C254.819 39.7612 253.325 40.448 252.328 41.822C251.331 43.1966 250.833 45.0189 250.833 47.2895Z" fill="#0B0F19"/>
<path d="M52.0329 42.5047C46.9597 36.1485 37.2565 34.692 30.3616 39.251C23.4667 43.8101 21.9902 52.6587 27.0643 59.0148L27.448 59.496C19.1736 49.5864 18.7666 35.6854 27.0152 25.4991L27.1619 25.3202C32.2724 19.102 41.9827 17.9079 48.8506 22.6538C55.7186 27.3989 57.1431 36.2869 52.0329 42.5047Z" fill="url(#paint0_linear_117_39136)"/>
<path d="M52.0324 42.5047C43.9554 45.0062 39.7066 53.0425 42.5425 60.4537C45.3783 67.865 54.2259 71.8452 62.303 69.3437L62.8377 69.1776C52.7935 72.4686 41.0911 70.886 32.2501 64.0929C30.432 62.6959 28.8301 61.1517 27.4475 59.496L27.0634 59.0151C21.9901 52.659 23.4659 43.8105 30.3611 39.251C37.2564 34.6923 46.9588 36.1489 52.0324 42.5047Z" fill="url(#paint1_linear_117_39136)"/>
<path d="M52.0326 42.5048C52.0843 50.3269 59.0661 56.7061 67.6268 56.7535C76.187 56.8014 83.0844 50.499 83.0324 42.6773L83.0311 42.4981C83.1228 48.9868 80.7876 55.511 75.9006 60.844C72.3025 64.7707 67.7703 67.5618 62.838 69.1777L62.3028 69.3434C54.2257 71.845 45.379 67.8654 42.5427 60.4538C39.7068 53.0426 43.9556 45.0063 52.0326 42.5048Z" fill="url(#paint2_linear_117_39136)"/>
<path d="M52.0324 42.5046C60.1897 44.9672 68.9067 40.9445 71.5029 33.5195C74.0985 26.096 69.59 18.0811 61.4324 15.619L60.7644 15.4171C64.6949 16.513 68.4604 18.3398 71.8144 20.9168C79.0999 26.5147 82.9172 34.48 83.0305 42.4984L83.0317 42.6768C83.0838 50.4993 76.1864 56.8016 67.6258 56.7542C59.0651 56.7061 52.0836 50.3272 52.0317 42.5054L52.0324 42.5046Z" fill="url(#paint3_linear_117_39136)"/>
<path d="M52.0327 42.5049C57.1435 36.2863 55.7182 27.3984 48.8499 22.6529C41.9815 17.9075 32.2721 19.1022 27.162 25.3201L27.0153 25.4989C27.3836 25.0439 27.7667 24.5992 28.1642 24.1653C36.3101 15.2759 49.2469 12.206 60.7654 15.4165L61.4334 15.6185C69.5907 18.081 74.0995 26.0955 71.5033 33.5205C68.907 40.9448 60.1903 44.967 52.0327 42.5049Z" fill="url(#paint4_linear_117_39136)"/>
<g opacity="0.505">
<path d="M61.1944 15.5468L61.4328 15.6187C69.5901 18.0812 74.0989 26.0957 71.5022 33.5204C68.9064 40.945 60.1893 44.9677 52.0317 42.5055C52.7725 41.6054 53.3917 40.6264 53.8756 39.59C58.6431 40.4838 63.753 39.0412 67.0703 35.421C71.912 30.1373 71.1016 22.2148 65.2596 17.7261C64.0112 16.7669 62.6348 16.0418 61.1944 15.5468Z" fill="url(#paint5_linear_117_39136)"/>
<path d="M61.1943 15.5466L61.4325 15.6188C69.5899 18.0813 74.0984 26.0955 71.5029 33.5202C68.9067 40.9449 60.1896 44.9671 52.0322 42.5051C52.7729 41.6048 53.3918 40.6257 53.8755 39.5891C58.6433 40.4835 63.7533 39.041 67.0703 35.4204C71.913 30.1371 71.1019 22.2145 65.2596 17.7257C64.0493 16.7934 62.6746 16.0565 61.1943 15.5466Z" fill="black" fill-opacity="0.496"/>
</g>
<g opacity="0.544">
<path d="M82.9888 42.2658L82.9879 42.4956C82.951 50.3606 76.0197 56.7636 67.5066 56.798C58.9931 56.8317 52.1216 50.4827 52.1578 42.6181C53.3217 42.985 54.5299 43.2215 55.7559 43.3225C56.3011 47.7501 59.3784 51.7544 64.1634 53.5247C71.1474 56.1085 79.1252 52.955 81.9822 46.4798C82.5924 45.0967 82.9199 43.6732 82.9888 42.2658Z" fill="url(#paint6_linear_117_39136)"/>
<path d="M82.989 42.265L82.9879 42.4952C82.9513 50.3603 76.0203 56.7634 67.5071 56.7969C58.9933 56.8304 52.1217 50.4816 52.1588 42.617C53.3226 42.9839 54.5305 43.2205 55.7563 43.3216C56.3012 47.7497 59.3783 51.7542 64.1633 53.5247C71.1474 56.1086 79.1254 52.9546 81.982 46.4792C82.5764 45.137 82.9169 43.7119 82.989 42.265Z" fill="black" fill-opacity="0.5"/>
</g>
<g opacity="0.562">
<path d="M62.5125 69.1546L62.2743 69.2285C54.1412 71.7571 45.273 67.8412 42.4665 60.4806C39.6606 53.1206 43.9786 45.1041 52.1117 42.575C52.1117 43.7021 52.2606 44.8251 52.5552 45.9195C48.1603 47.8336 45.0275 51.8016 44.7574 56.5209C44.3632 63.4089 50.2179 69.2894 57.8336 69.6549C59.461 69.733 61.0368 69.553 62.5125 69.1546Z" fill="url(#paint7_linear_117_39136)"/>
<path d="M62.5123 69.1544L62.2747 69.2282C54.1413 71.7571 45.2734 67.8411 42.4671 60.4807C39.6608 53.1214 43.9791 45.1046 52.1119 42.5757C52.113 43.728 52.2661 44.8478 52.5557 45.9201C48.1603 47.8334 45.0272 51.8012 44.7576 56.5207C44.3635 63.4093 50.2172 69.2894 57.833 69.6545C59.4604 69.7329 61.0363 69.553 62.5123 69.1544Z" fill="black"/>
</g>
<g opacity="0.584">
<path d="M26.9153 58.9191L26.772 58.7299C21.8758 52.2679 23.5427 43.3824 30.495 38.884C37.4477 34.3849 47.0533 35.9761 51.9501 42.438C50.7668 42.7486 49.629 43.1892 48.5613 43.7502C45.3412 40.4092 40.3122 38.7454 35.2837 39.8084C27.9443 41.36 23.3847 48.1338 25.1002 54.9381C25.4668 56.3921 26.0901 57.7296 26.9152 58.9186L26.9153 58.9191Z" fill="url(#paint8_linear_117_39136)"/>
<path d="M26.9155 58.9194L26.7727 58.7301C21.8758 52.2683 23.5425 43.3828 30.4952 38.884C37.4479 34.3853 47.0533 35.9764 51.9497 42.4387C50.7665 42.7493 49.6288 43.19 48.5613 43.751C45.3414 40.4098 40.3125 38.7454 35.2836 39.8088C27.9437 41.3601 23.3849 48.1342 25.1002 54.9385C25.4543 56.35 26.0682 57.6965 26.9155 58.9194Z" fill="black" fill-opacity="0.503"/>
</g>
<g opacity="0.18">
<path d="M27.0509 25.6877L27.2032 25.5044C32.4017 19.2435 42.1454 17.9495 48.9659 22.614C55.7872 27.2787 57.1024 36.1359 51.9047 42.397C51.2162 41.4626 50.4068 40.6079 49.4941 39.8516C51.9695 36.0146 52.1435 31.1208 49.4855 27.07C45.606 21.1577 37.1617 19.2801 30.6248 22.8768C29.2279 23.6453 28.0314 24.6014 27.0514 25.6874L27.0509 25.6877Z" fill="url(#paint9_linear_117_39136)"/>
<path d="M27.0508 25.688L27.2033 25.5049C32.4012 19.244 42.1448 17.9495 48.9662 22.614C55.7869 27.2791 57.1024 36.1359 51.9044 42.3973C51.2161 41.4628 50.4067 40.6081 49.494 39.8517C51.9696 36.0146 52.1438 31.1209 49.4854 27.0704C45.6058 21.1579 37.1617 19.2801 30.6242 22.8771C29.2675 23.6217 28.0591 24.5722 27.0508 25.688Z" fill="black" fill-opacity="0.773"/>
</g>
<path d="M49.5883 48.5772H55.2592C60.6017 48.5772 64.9325 44.7338 64.9325 39.9924C64.9325 35.2514 60.6017 31.4081 55.2592 31.4081H47.0738C43.9922 31.4081 41.4932 33.6258 41.4932 36.3608V55.6368L49.5883 48.5772Z" fill="white"/>
</g>
<defs>
<linearGradient id="paint0_linear_117_39136" x1="8804.64" y1="10735" x2="-1347.77" y2="1517.21" gradientUnits="userSpaceOnUse">
<stop stop-color="#FF5C34"/>
<stop offset="1" stop-color="#EB0256"/>
</linearGradient>
<linearGradient id="paint1_linear_117_39136" x1="4070.06" y1="8411.87" x2="8161.98" y2="6110.79" gradientUnits="userSpaceOnUse">
<stop stop-color="#A63FDB"/>
<stop offset="1" stop-color="#FF257E"/>
</linearGradient>
<linearGradient id="paint2_linear_117_39136" x1="-181.198" y1="3496.36" x2="8175.53" y2="11654.5" gradientUnits="userSpaceOnUse">
<stop stop-color="#00FFF0"/>
<stop offset="1" stop-color="#0087FF"/>
</linearGradient>
<linearGradient id="paint3_linear_117_39136" x1="10325" y1="8513.28" x2="1171.16" y2="5575.66" gradientUnits="userSpaceOnUse">
<stop stop-color="#17C934"/>
<stop offset="1" stop-color="#03FF6E"/>
</linearGradient>
<linearGradient id="paint4_linear_117_39136" x1="4006.16" y1="9009.63" x2="6012" y2="4437.37" gradientUnits="userSpaceOnUse">
<stop stop-color="#FFB000"/>
<stop offset="1" stop-color="#FF7725"/>
</linearGradient>
<linearGradient id="paint5_linear_117_39136" x1="1616.52" y1="5372.24" x2="944.019" y2="2685.31" gradientUnits="userSpaceOnUse">
<stop stop-color="#FFB000"/>
<stop offset="1" stop-color="#FF7725"/>
</linearGradient>
<linearGradient id="paint6_linear_117_39136" x1="957.934" y1="-7592.44" x2="-5620.48" y2="9817.7" gradientUnits="userSpaceOnUse">
<stop stop-color="#9EE85D"/>
<stop offset="1" stop-color="#0ED061"/>
</linearGradient>
<linearGradient id="paint7_linear_117_39136" x1="-4250.54" y1="-3430.82" x2="421.825" y2="-1500.4" gradientUnits="userSpaceOnUse">
<stop stop-color="#21EFE3"/>
<stop offset="1" stop-color="#2598FF"/>
</linearGradient>
<linearGradient id="paint8_linear_117_39136" x1="21.0466" y1="-9247.07" x2="3754.21" y2="7623.12" gradientUnits="userSpaceOnUse">
<stop stop-color="#A63FDB"/>
<stop offset="1" stop-color="#FF257E"/>
</linearGradient>
<linearGradient id="paint9_linear_117_39136" x1="9662.91" y1="-2897.24" x2="1618.29" y2="2443.68" gradientUnits="userSpaceOnUse">
<stop stop-color="#FF5C34"/>
<stop offset="1" stop-color="#EB0256"/>
</linearGradient>
<clipPath id="clip0_117_39136">
<rect width="276" height="74" fill="white"/>
</clipPath>
</defs>
</svg>
