<svg width="278" height="77" viewBox="0 0 278 77" fill="none" xmlns="http://www.w3.org/2000/svg">
<path d="M41.6895 0C18.6655 0 0 17.2097 0 38.4386C0 59.6684 18.6655 76.8768 41.6895 76.8768C64.716 76.8768 83.3795 59.6684 83.3795 38.4386C83.3795 17.2111 64.716 0.00183604 41.689 0.00183604L41.6895 0ZM60.8081 55.4395C60.6302 55.7083 60.3965 55.9421 60.1205 56.1275C59.8445 56.3129 59.5315 56.4463 59.1995 56.5201C58.8675 56.5939 58.523 56.6065 58.1856 56.5574C57.8483 56.5082 57.5248 56.3982 57.2337 56.2336C47.4454 50.7209 35.1232 49.4724 20.6115 52.5294C19.9396 52.6703 19.2344 52.5594 18.6511 52.2211C18.0678 51.8829 17.654 51.3449 17.5006 50.7255C17.4242 50.4187 17.4142 50.1011 17.4712 49.7909C17.5281 49.4806 17.6509 49.1837 17.8324 48.9172C18.0139 48.6507 18.2507 48.4199 18.5292 48.2379C18.8076 48.0559 19.1223 47.9263 19.4551 47.8566C35.3358 44.5113 48.9578 45.9517 59.9468 52.1438C61.1715 52.8369 61.5598 54.3103 60.8081 55.4395ZM65.9108 44.9731C64.9699 46.3832 62.9686 46.8284 61.4403 45.9609C50.2342 39.61 33.1523 37.7708 19.8976 41.4805C18.1786 41.9592 16.3631 41.066 15.8414 39.4838C15.5924 38.7231 15.6808 37.9025 16.0871 37.2018C16.4934 36.5011 17.1846 35.9776 18.0089 35.746C33.1493 31.5103 51.9716 33.5621 64.8405 40.8535C66.3688 41.721 66.8517 43.5658 65.9108 44.9731ZM66.3489 34.0743C52.9125 26.7159 30.7443 26.0393 17.9158 29.6292C15.8558 30.2053 13.6773 29.1331 13.053 27.2337C12.7528 26.3211 12.858 25.336 13.3454 24.4949C13.8328 23.6539 14.6626 23.0258 15.6522 22.7487C30.3784 18.6267 54.859 19.4231 70.3285 27.8905C70.7694 28.131 71.1545 28.4493 71.4618 28.8272C71.769 29.2051 71.9924 29.6352 72.1191 30.0929C72.2458 30.5505 72.2734 31.0267 72.2002 31.4942C72.127 31.9616 71.9545 32.4112 71.6926 32.8171C70.5973 34.5255 68.1978 35.0887 66.3509 34.0743H66.3489ZM113.423 35.4844C106.225 33.9017 104.945 32.7909 104.945 30.4568C104.945 28.2518 107.196 26.7678 110.546 26.7678C113.792 26.7678 117.008 27.8946 120.383 30.2145C120.483 30.2847 120.612 30.3127 120.736 30.2944C120.799 30.2861 120.859 30.2661 120.913 30.2356C120.967 30.2051 121.014 30.1648 121.05 30.1172L124.565 25.5491C124.634 25.4585 124.664 25.347 124.647 25.2371C124.63 25.1273 124.569 25.0274 124.475 24.9579C120.458 21.9867 115.937 20.5422 110.65 20.5422C102.879 20.5422 97.4481 24.8427 97.4481 30.9957C97.4481 37.594 102.133 39.9304 110.227 41.7339C117.112 43.1967 118.277 44.4223 118.277 46.6127C118.277 49.0409 115.927 50.551 112.144 50.551C107.942 50.551 104.512 49.2428 100.679 46.1858C100.583 46.1113 100.46 46.0735 100.336 46.0802C100.206 46.0894 100.092 46.1445 100.012 46.2317L96.0691 50.5556C95.9049 50.7392 95.9248 51.0055 96.114 51.1615C100.574 54.8336 106.061 56.7706 111.985 56.7706C120.358 56.7706 125.77 52.5523 125.77 46.0206C125.784 40.5092 122.205 37.4568 113.438 35.4904L113.423 35.4844ZM144.717 28.9389C141.088 28.9389 138.111 30.2572 135.651 32.9585V29.918C135.652 29.803 135.603 29.6925 135.515 29.6109C135.427 29.5292 135.308 29.483 135.183 29.4824H128.737C128.478 29.4824 128.269 29.6779 128.269 29.918V63.7017C128.269 63.9404 128.478 64.1378 128.737 64.1378H135.183C135.442 64.1378 135.651 63.9404 135.651 63.7017V53.0389C138.111 55.5772 141.088 56.8211 144.717 56.8211C151.462 56.8211 158.293 52.0336 158.293 42.8814C158.303 33.7273 151.472 28.9384 144.722 28.9384L144.717 28.9389ZM150.795 42.8814C150.795 47.5399 147.684 50.7943 143.223 50.7943C138.818 50.7943 135.492 47.393 135.492 42.8814C135.492 38.3693 138.818 34.9689 143.223 34.9689C147.609 34.9685 150.795 38.2959 150.795 42.8814ZM175.791 28.9389C167.104 28.9389 160.299 35.1062 160.299 42.981C160.299 50.7714 167.059 56.8716 175.687 56.8716C184.404 56.8716 191.229 50.7255 191.229 42.8814C191.229 35.064 184.448 28.9398 175.791 28.9398V28.9389ZM175.791 50.8402C171.171 50.8402 167.687 47.416 167.687 42.8791C167.687 38.3216 171.052 35.0144 175.687 35.0144C180.336 35.0144 183.841 38.4372 183.841 42.9787C183.841 47.5353 180.456 50.8402 175.791 50.8402ZM209.778 29.4824H202.684V22.7964C202.684 22.7395 202.672 22.6831 202.649 22.6304C202.625 22.5778 202.591 22.5299 202.548 22.4895C202.504 22.449 202.452 22.4169 202.395 22.3949C202.339 22.3729 202.278 22.3615 202.216 22.3612H195.769C195.51 22.3612 195.296 22.5568 195.296 22.7964V29.4824H192.2C191.941 29.4824 191.732 29.6779 191.732 29.918V35.0254C191.732 35.265 191.941 35.461 192.2 35.461H195.296V48.6783C195.296 54.0166 198.178 56.7247 203.869 56.7247C206.179 56.7247 208.095 56.2841 209.902 55.3385C210.052 55.2651 210.141 55.1182 210.141 54.9621V50.0966C210.141 49.9497 210.057 49.8074 209.917 49.7294C209.849 49.6894 209.771 49.6667 209.691 49.6634C209.61 49.6602 209.531 49.6766 209.459 49.711C208.22 50.2848 207.02 50.551 205.676 50.551C203.61 50.551 202.684 49.6835 202.684 47.7465V35.4633H209.778C210.037 35.4633 210.246 35.2678 210.246 35.0277V29.9207C210.248 29.8637 210.237 29.8069 210.215 29.7538C210.193 29.7006 210.159 29.6522 210.115 29.6115C210.072 29.5708 210.02 29.5386 209.963 29.5169C209.906 29.4951 209.845 29.4843 209.783 29.4851L209.778 29.4824ZM234.49 29.5085V28.6874C234.49 26.2716 235.496 25.1943 237.746 25.1943C239.09 25.1943 240.17 25.4403 241.38 25.8121C241.529 25.8552 241.684 25.8337 241.803 25.7515C241.864 25.7112 241.913 25.658 241.947 25.5966C241.98 25.5351 241.998 25.467 241.997 25.3981V20.3902C241.998 20.2967 241.966 20.2054 241.906 20.1301C241.846 20.0548 241.761 19.9997 241.664 19.973C240.389 19.6228 238.756 19.2634 236.307 19.2634C230.358 19.2634 227.207 22.3544 227.207 28.199V29.4567H224.11C223.851 29.4567 223.637 29.6522 223.637 29.8918V35.0254C223.637 35.265 223.851 35.461 224.11 35.461H227.207V55.8434C227.207 56.0867 227.421 56.2795 227.68 56.2795H234.122C234.385 56.2795 234.594 56.0867 234.594 55.8434V35.4624H240.613L249.833 55.8434C248.788 57.9824 247.757 58.4093 246.353 58.4093C245.218 58.4093 244.018 58.0972 242.799 57.4775C242.683 57.4237 242.55 57.4123 242.425 57.4454C242.301 57.4867 242.196 57.5693 242.147 57.6795L239.961 62.0998C239.857 62.3109 239.946 62.5542 240.165 62.6644C242.445 63.8027 244.501 64.2893 247.045 64.2893C251.804 64.2893 254.438 62.2421 256.753 56.7431L267.934 30.1034C267.963 30.0375 267.974 29.966 267.965 29.8954C267.956 29.8247 267.929 29.7572 267.884 29.699C267.842 29.6408 267.785 29.5931 267.718 29.5601C267.651 29.5271 267.577 29.5098 267.501 29.5099H260.79C260.586 29.5099 260.407 29.6279 260.342 29.8018L253.467 47.9025L245.94 29.7899C245.906 29.7078 245.846 29.6371 245.768 29.5871C245.69 29.5371 245.597 29.5102 245.502 29.5099H234.49V29.5085ZM220.162 29.4824H213.716C213.457 29.4824 213.243 29.6779 213.243 29.918V55.8434C213.243 56.0867 213.457 56.2795 213.716 56.2795H220.162C220.421 56.2795 220.635 56.0867 220.635 55.8434V29.9198C220.636 29.8625 220.623 29.8058 220.6 29.7529C220.576 29.6999 220.541 29.6518 220.497 29.6114C220.453 29.5709 220.401 29.5388 220.344 29.517C220.286 29.4952 220.225 29.484 220.162 29.4842V29.4824ZM216.976 17.677C214.423 17.677 212.352 19.5828 212.352 21.9371C212.352 24.2928 214.423 26.2009 216.976 26.2009C219.53 26.2009 221.596 24.2928 221.596 21.9371C221.596 19.5833 219.525 17.677 216.976 17.677ZM273.44 37.8185C270.891 37.8185 268.905 35.9296 268.905 33.636C268.905 31.3423 270.916 29.4319 273.465 29.4319C276.014 29.4319 278 31.3202 278 33.6121C278 35.9058 275.989 37.8185 273.44 37.8185ZM273.465 29.8477C271.14 29.8477 269.383 31.5507 269.383 33.636C269.383 35.7203 271.13 37.4003 273.44 37.4003C275.765 37.4003 277.522 35.6988 277.522 33.6121C277.522 31.5277 275.775 29.8477 273.465 29.8477ZM274.47 34.0422L275.755 35.6983H274.67L273.515 34.179H272.524V35.6983H271.618V31.3083H273.739C274.849 31.3083 275.576 31.8302 275.576 32.7088C275.581 33.4285 275.128 33.8682 274.475 34.0422H274.47ZM273.704 32.0616H272.524V33.4501H273.704C274.291 33.4501 274.645 33.1843 274.645 32.7551C274.645 32.3035 274.291 32.0616 273.704 32.0616Z" fill="#1ED760"/>
</svg>
