<svg width="159" height="48" viewBox="0 0 159 48" fill="none" xmlns="http://www.w3.org/2000/svg">
<path d="M23.844 0C10.6756 0 0 10.7454 0 24.0001C0 37.2555 10.6756 48 23.844 48C37.0138 48 47.6883 37.2555 47.6883 24.0001C47.6883 10.7462 37.0138 0.00114638 23.8437 0.00114638L23.844 0ZM34.7787 34.6151C34.677 34.7829 34.5433 34.9289 34.3855 35.0447C34.2276 35.1604 34.0486 35.2437 33.8587 35.2898C33.6688 35.3358 33.4718 35.3438 33.2788 35.3131C33.0859 35.2824 32.9009 35.2137 32.7344 35.1109C27.136 31.6689 20.0884 30.8893 11.7886 32.7981C11.4043 32.886 11.001 32.8168 10.6674 32.6056C10.3337 32.3944 10.097 32.0585 10.0093 31.6717C9.96566 31.4802 9.95994 31.2819 9.9925 31.0882C10.0251 30.8945 10.0953 30.7091 10.1991 30.5427C10.3029 30.3763 10.4384 30.2322 10.5976 30.1186C10.7569 30.0049 10.9368 29.9241 11.1272 29.8805C20.21 27.7918 28.001 28.6912 34.2861 32.5573C34.9866 32.9901 35.2087 33.9101 34.7787 34.6151ZM37.6972 28.0801C37.159 28.9605 36.0144 29.2386 35.1403 28.6969C28.7311 24.7315 18.9612 23.5831 11.3803 25.8994C10.3971 26.1983 9.35874 25.6406 9.06034 24.6527C8.91796 24.1778 8.96851 23.6654 9.2009 23.2279C9.4333 22.7904 9.82857 22.4635 10.3 22.319C18.9595 19.6743 29.7248 20.9553 37.085 25.5079C37.9591 26.0496 38.2353 27.2014 37.6972 28.0801ZM37.9477 21.2752C30.2629 16.6808 17.584 16.2583 10.2468 18.4998C9.0686 18.8595 7.82263 18.19 7.46558 17.004C7.29389 16.4343 7.35405 15.8192 7.63282 15.2941C7.91159 14.7689 8.38615 14.3767 8.95214 14.2037C17.3747 11.6301 31.3762 12.1273 40.2239 17.4142C40.476 17.5643 40.6963 17.7631 40.872 17.999C41.0477 18.235 41.1755 18.5035 41.248 18.7893C41.3204 19.075 41.3362 19.3723 41.2943 19.6642C41.2525 19.9561 41.1538 20.2368 41.004 20.4902C40.3776 21.5569 39.0052 21.9086 37.9489 21.2752H37.9477ZM64.8717 22.1556C60.7545 21.1674 60.0227 20.4739 60.0227 19.0165C60.0227 17.6397 61.3097 16.7131 63.2259 16.7131C65.0823 16.7131 66.9217 17.4167 68.8521 18.8652C68.9091 18.909 68.9831 18.9265 69.0543 18.9151C69.0901 18.9099 69.1245 18.8974 69.1553 18.8784C69.1862 18.8594 69.2128 18.8342 69.2337 18.8044L71.2439 15.9522C71.2836 15.8957 71.3004 15.826 71.2908 15.7575C71.2813 15.6889 71.2462 15.6265 71.1926 15.5831C68.8949 13.728 66.3095 12.826 63.2857 12.826C58.8411 12.826 55.7347 15.5112 55.7347 19.353C55.7347 23.4728 58.414 24.9316 63.0437 26.0576C66.9815 26.971 67.6478 27.7362 67.6478 29.1038C67.6478 30.6199 66.3038 31.5628 64.1399 31.5628C61.7368 31.5628 59.775 30.746 57.5826 28.8373C57.5279 28.7908 57.4576 28.7672 57.3861 28.7714C57.3121 28.7771 57.2466 28.8115 57.2011 28.866L54.946 31.5657C54.8521 31.6803 54.8634 31.8466 54.9716 31.944C57.5228 34.2368 60.6605 35.4462 64.0488 35.4462C68.8379 35.4462 71.9329 32.8124 71.9329 28.7341C71.9415 25.293 69.8943 23.3871 64.8802 22.1593L64.8717 22.1556ZM82.7697 18.0687C80.694 18.0687 78.9913 18.8919 77.5848 20.5785V18.6801C77.5851 18.6083 77.5571 18.5393 77.5069 18.4883C77.4567 18.4373 77.3884 18.4085 77.3171 18.4081H73.6299C73.4818 18.4081 73.3623 18.5302 73.3623 18.6801V39.7738C73.3623 39.9229 73.4818 40.0461 73.6299 40.0461H77.3171C77.4652 40.0461 77.5848 39.9229 77.5848 39.7738V33.1162C78.9913 34.7011 80.694 35.4777 82.7697 35.4777C86.6278 35.4777 90.5342 32.4885 90.5342 26.7741C90.5399 21.0585 86.6334 18.0685 82.7725 18.0685L82.7697 18.0687ZM86.2462 26.7741C86.2462 29.6828 84.4667 31.7147 81.9155 31.7147C79.3957 31.7147 77.4937 29.5911 77.4937 26.7741C77.4937 23.9569 79.3957 21.8338 81.9155 21.8338C84.424 21.8335 86.2462 23.911 86.2462 26.7741ZM100.542 18.0687C95.5739 18.0687 91.6817 21.9195 91.6817 26.8363C91.6817 31.7004 95.5483 35.5093 100.483 35.5093C105.468 35.5093 109.372 31.6718 109.372 26.7741C109.372 21.8931 105.494 18.0687 100.542 18.0687ZM100.542 31.7434C97.9001 31.7434 95.907 29.6054 95.907 26.7727C95.907 23.9271 97.8318 21.8621 100.483 21.8621C103.142 21.8621 105.146 23.9993 105.146 26.8349C105.146 29.6799 103.21 31.7434 100.542 31.7434ZM119.981 18.4081H115.923V14.2335C115.924 14.198 115.917 14.1628 115.903 14.1299C115.89 14.097 115.87 14.0671 115.846 14.0419C115.821 14.0166 115.791 13.9966 115.759 13.9829C115.726 13.9691 115.691 13.962 115.656 13.9618H111.969C111.821 13.9618 111.698 14.0839 111.698 14.2335V18.4081H109.927C109.779 18.4081 109.659 18.5302 109.659 18.6801V21.869C109.659 22.0186 109.779 22.141 109.927 22.141H111.698V30.3935C111.698 33.7266 113.347 35.4176 116.601 35.4176C117.922 35.4176 119.018 35.1424 120.052 34.552C120.137 34.5062 120.189 34.4145 120.189 34.317V31.2791C120.189 31.1874 120.14 31.0986 120.061 31.0498C120.022 31.0249 119.977 31.0107 119.931 31.0087C119.885 31.0066 119.839 31.0169 119.799 31.0384C119.09 31.3966 118.403 31.5628 117.635 31.5628C116.453 31.5628 115.923 31.0212 115.923 29.8117V22.1424H119.981C120.129 22.1424 120.248 22.0203 120.248 21.8704V18.6818C120.25 18.6462 120.244 18.6107 120.231 18.5776C120.218 18.5444 120.199 18.5141 120.174 18.4887C120.149 18.4633 120.12 18.4432 120.087 18.4296C120.054 18.4161 120.019 18.4093 119.984 18.4098L119.981 18.4081ZM134.115 18.4244V17.9117C134.115 16.4033 134.69 15.7307 135.977 15.7307C136.746 15.7307 137.363 15.8843 138.055 16.1165C138.141 16.1434 138.229 16.1299 138.297 16.0786C138.332 16.0534 138.36 16.0203 138.38 15.9819C138.399 15.9435 138.409 15.901 138.408 15.8579V12.7312C138.409 12.6728 138.391 12.6158 138.356 12.5687C138.322 12.5217 138.273 12.4873 138.218 12.4707C137.489 12.252 136.555 12.0276 135.154 12.0276C131.751 12.0276 129.949 13.9575 129.949 17.6068V18.392H128.178C128.03 18.392 127.908 18.5141 127.908 18.6637V21.869C127.908 22.0186 128.03 22.141 128.178 22.141H129.949V34.8673C129.949 35.0192 130.072 35.1396 130.22 35.1396H133.904C134.055 35.1396 134.175 35.0192 134.175 34.8673V22.1419H137.617L142.89 34.8673C142.292 36.2028 141.703 36.4694 140.9 36.4694C140.251 36.4694 139.564 36.2745 138.867 35.8876C138.801 35.854 138.724 35.8468 138.653 35.8675C138.582 35.8933 138.522 35.9449 138.494 36.0137L137.244 38.7736C137.184 38.9054 137.235 39.0573 137.361 39.1261C138.665 39.8369 139.841 40.1407 141.296 40.1407C144.018 40.1407 145.524 38.8624 146.848 35.429L153.243 18.7958C153.259 18.7547 153.266 18.7101 153.261 18.6659C153.256 18.6218 153.24 18.5797 153.214 18.5434C153.19 18.507 153.158 18.4772 153.119 18.4566C153.081 18.436 153.038 18.4252 152.995 18.4253H149.157C149.04 18.4253 148.938 18.4989 148.901 18.6075L144.969 29.9092L140.663 18.6001C140.644 18.5488 140.61 18.5047 140.565 18.4735C140.52 18.4422 140.467 18.4254 140.413 18.4253H134.115V18.4244ZM125.92 18.4081H122.233C122.085 18.4081 121.963 18.5302 121.963 18.6801V34.8673C121.963 35.0192 122.085 35.1396 122.233 35.1396H125.92C126.068 35.1396 126.191 35.0192 126.191 34.8673V18.6812C126.191 18.6454 126.184 18.61 126.17 18.577C126.157 18.5439 126.137 18.5139 126.112 18.4886C126.087 18.4633 126.057 18.4433 126.024 18.4297C125.991 18.4161 125.956 18.4091 125.92 18.4092V18.4081ZM124.098 11.0371C122.637 11.0371 121.453 12.2271 121.453 13.697C121.453 15.1678 122.637 16.3592 124.098 16.3592C125.559 16.3592 126.74 15.1678 126.74 13.697C126.74 12.2273 125.556 11.0371 124.098 11.0371ZM156.392 23.6129C154.934 23.6129 153.798 22.4336 153.798 21.0015C153.798 19.5694 154.948 18.3766 156.406 18.3766C157.864 18.3766 159 19.5556 159 20.9866C159 22.4187 157.85 23.6129 156.392 23.6129ZM156.406 18.6362C155.076 18.6362 154.071 19.6995 154.071 21.0015C154.071 22.3029 155.071 23.3519 156.392 23.3519C157.722 23.3519 158.727 22.2895 158.727 20.9866C158.727 19.6852 157.727 18.6362 156.406 18.6362ZM156.981 21.2551L157.716 22.2892H157.095L156.435 21.3405H155.868V22.2892H155.35V19.5482H156.563C157.198 19.5482 157.613 19.874 157.613 20.4226C157.616 20.8719 157.357 21.1465 156.984 21.2551H156.981ZM156.543 20.0185H155.868V20.8854H156.543C156.879 20.8854 157.081 20.7195 157.081 20.4515C157.081 20.1695 156.879 20.0185 156.543 20.0185Z" fill="#1ED760"/>
</svg>
