<svg width="161" height="48" viewBox="0 0 161 48" fill="none" xmlns="http://www.w3.org/2000/svg">
<g clip-path="url(#clip0_221_511)">
<path d="M6.85569 30.6134C7.1598 26.5735 7.46392 22.5336 7.75935 18.4937C8.07216 14.3042 8.37628 10.0848 8.68908 5.92516C8.72384 5.50621 8.85418 4.87778 8.94107 4.87778C10.3226 4.81793 11.7042 4.81793 13.1031 4.81793C13.7288 13.4962 14.337 22.0249 14.9539 30.6134H15.0408C15.6317 22.0249 16.2225 13.4962 16.8221 4.87778H21.8791C21.5489 8.37903 21.2361 11.8204 20.9233 15.2319C19.9849 25.3765 19.0291 35.4613 18.0994 45.576C17.9951 46.7132 17.8561 47.1621 17.4911 47.1321C16.0922 47.0424 14.7019 47.0424 13.2943 47.1321C12.8946 47.1621 12.7208 46.773 12.6252 45.3666C12.1126 38.1845 11.5739 31.0025 11.0351 23.8503C11.0091 23.4912 10.9743 23.1321 10.9048 22.384C10.2792 30.8229 9.69702 38.8728 9.08878 47.1022H6.78617C5.92595 47.1022 5.08311 47.0723 4.22289 47.1022C4.01436 47.1022 3.9014 46.9227 3.83189 46.1745C2.58066 32.6484 1.31205 19.0922 0.0521345 5.56606C0.0347563 5.38651 0.0260673 5.20696 0 4.84786H1.30336C2.41557 4.84786 3.54515 4.87778 4.65735 4.81793C4.94409 4.81793 5.06574 5.05733 5.13525 6.07479C5.6479 13.8254 6.16925 21.5162 6.69928 29.2369C6.73404 29.7157 6.7688 30.1646 6.80355 30.6434C6.81224 30.6434 6.82962 30.6134 6.85569 30.6134ZM74.7869 47.0124H70.1904V45.3965V30.6434C70.1904 27.1421 69.7212 25.4065 68.7133 25.1072C67.4012 24.7481 66.7669 26.7531 66.7582 31.2718C66.7495 35.9401 66.7582 40.6085 66.7582 45.2768V46.9526H62.1704V4.87778H66.7408V19.9601C67.1058 19.1222 67.3925 18.2843 67.714 17.6858C69.5822 14.3341 71.4677 14.6035 73.2924 17.8952C74.309 19.7506 74.7435 23.2518 74.7782 27.0523C74.8304 33.6658 74.7869 40.2793 74.7869 47.0124Z" fill="black"/>
<path d="M149.322 20.2294C150.06 18.1945 150.738 16.6085 151.564 16.0698C152.815 15.202 154.066 15.3217 155.274 16.9376C156.603 18.6733 157.29 22.1746 157.351 26.8429C157.429 33.4264 157.377 40.0399 157.368 46.6234C157.368 46.7132 157.351 46.803 157.324 46.9825H152.841C152.832 46.5636 152.815 46.1147 152.815 45.6958V30.9426C152.815 28.6384 152.693 26.5137 151.989 25.6159C151.233 24.6583 150.46 24.6883 149.8 26.5436C149.365 27.7706 149.33 29.6559 149.33 31.4514C149.322 36.0598 149.33 40.6683 149.33 45.3367V46.9825H144.795V4.9975H149.313C149.322 9.96508 149.322 14.9327 149.322 20.2294ZM101.202 15.8903V5.02742H115.808V15.8005H111.142V46.9526H105.911V15.9202C104.321 15.8903 102.792 15.8903 101.202 15.8903ZM142.579 27.8603H137.991C137.479 23.9701 136.627 22.6833 135.437 24.0598C134.611 25.0174 134.333 27.2918 134.229 29.9252C134.177 31.2419 134.185 32.6484 134.238 33.9352C134.368 37.4364 134.985 39.3516 136.062 39.7107C137.062 40.0399 137.722 38.5736 138.061 35.2519H142.64C142.483 38.4239 142.066 40.9676 141.371 42.9726C140.572 45.2469 139.633 46.414 138.643 47.0424C136.54 48.3591 134.472 48.2095 132.465 45.4564C129.91 41.985 128.885 32.8878 130.136 24.7481C130.614 21.6658 131.37 19.5711 132.274 18.0748C134.012 15.2319 135.854 14.9626 137.731 15.6209C138.99 16.0997 140.207 17.207 141.241 19.9002C141.971 21.9651 142.405 24.5386 142.579 27.8603Z" fill="#CD1622"/>
<path d="M60.0067 23.3117H57.791V25.8255C57.791 28.818 57.7823 31.7806 57.791 34.803C57.7997 37.2569 58.0169 37.9751 58.7034 38.1247C59.1118 38.2145 59.5115 38.3043 59.9372 38.394V46.8928C59.9199 46.9227 59.9025 47.0424 59.8851 47.0424C58.2776 47.3417 56.6788 47.7307 55.08 46.7731C53.8375 46.025 53.3249 44.1696 53.238 39.8304C53.1684 36.0898 53.1858 32.3192 53.1684 28.5786C53.1598 26.9028 53.1684 25.2269 53.1684 23.4015H51.5783V16.3392H53.2293V6.79303H57.765V16.2494H59.9981V23.3117H60.0067ZM96.4574 46.7731H91.8696V16.3691H96.0317V22.025C96.9875 16.2793 98.4733 14.9327 100.229 15.4115V27.3217C99.7245 27.3217 99.264 27.2619 98.7861 27.3217C97.309 27.5611 96.5009 30.3741 96.4748 35.4913C96.4575 38.6634 96.4748 41.8354 96.4748 45.0075C96.4575 45.5761 96.4574 46.0848 96.4574 46.7731ZM50.4227 46.3242C49.9448 45.2768 49.8753 43.6908 49.884 41.9252C49.9013 36.7781 49.91 31.6309 49.884 26.4838C49.8579 20.8579 49.2236 17.9851 47.6422 16.6683C45.383 14.7232 43.0978 15.0225 40.8213 16.2793C39.9871 16.7282 39.1877 17.6259 38.5187 19.5112C37.9712 21.0973 37.7106 23.0723 37.7106 25.6758H38.1537C39.3354 25.6758 40.5345 25.6459 41.7162 25.7057C41.9769 25.7057 42.1246 25.4963 42.2723 24.6584C42.4027 23.9402 42.6894 23.222 42.9327 23.1023C43.4367 22.8329 43.9493 22.8928 44.462 22.9826C44.8356 23.0723 45.2266 23.5811 45.244 25.1072C45.2614 26.7232 44.8443 27.1422 44.4881 27.3516C43.6452 27.8304 42.8024 28.2195 41.9508 28.5187C40.8126 28.9676 39.6656 29.3267 38.5969 30.8529C37.4325 32.5287 36.8069 35.8803 36.9633 39.621C37.1284 43.3915 37.8496 45.5162 38.8401 46.6833C40.4389 48.5387 42.0638 48.389 43.6626 46.803C44.2969 46.1746 44.8791 45.0075 45.496 44.0798C45.5568 44.9776 45.6263 45.9651 45.6958 46.9526H50.4922C50.4748 46.6235 50.4575 46.414 50.4227 46.3242ZM43.1152 41.0873C42.8024 40.9975 42.4722 40.8479 42.1941 40.399C41.6641 39.5611 41.5946 37.7057 42.0551 36.5087C42.2897 35.8803 42.5938 35.4913 42.8893 35.2818C43.6626 34.6833 44.4446 34.2045 45.2527 33.6658C45.4091 38.424 44.5576 41.4464 43.1152 41.0873ZM86.717 17.5661C85.683 16.0998 84.5969 15.4713 83.4933 15.3816C81.9206 15.2319 80.4087 16.1297 79.0011 18.6733C77.1851 21.9651 76.264 28.4289 76.6637 34.9227C77.0026 40.2494 78.0279 43.5412 79.4268 45.5162C81.2863 48.2095 83.2327 48.389 85.1964 47.4314C86.2565 46.9227 87.2731 45.9053 88.1768 43.8703C88.8284 42.404 89.3237 40.4888 89.6191 37.7955C88.1768 37.7955 86.8039 37.7955 85.431 37.8254C85.3354 37.8254 85.1964 37.9751 85.1443 38.2145C84.4752 41.1771 82.8851 41.0574 82.0857 39.3217C81.5731 38.2145 81.182 36.7781 81.1907 34.3541H89.9841C90.0883 27.0225 88.8111 20.5586 86.717 17.5661ZM81.2168 28.1297C81.2255 24.8379 81.9206 23.0424 83.2414 22.8629C84.3536 22.7132 85.3007 25.0175 85.3789 28.1297H81.2168ZM31.1416 37.8254C31.046 37.8254 30.9244 38.0349 30.8636 38.2743C30.1337 41.3267 28.4219 41.0274 27.6312 38.8728C27.2228 37.7656 26.8927 36.419 26.9361 34.3242H35.7295C35.7381 27.8005 34.9735 22.8928 33.4442 19.3915C32.193 16.5486 30.7854 15.5611 29.2995 15.3816C27.7355 15.1721 26.2323 15.9501 24.842 18.4339C23.3475 21.1571 22.3917 25.2868 22.2961 31.2718C22.2006 37.3466 23.2346 42.6733 24.9724 45.2768C26.884 48.1496 28.8738 48.3591 30.8983 47.4314C31.9584 46.9227 32.9837 45.9352 33.8787 43.9003C34.5304 42.404 35.043 40.5486 35.3211 37.7955C33.9048 37.7955 32.5319 37.7955 31.1416 37.8254ZM27.4748 24.3292C28.3264 22.4738 29.2387 22.3242 30.1424 23.7606C30.6637 24.5985 31.0547 25.9152 31.0982 28.1596H26.9361C26.91 26.5437 27.0925 25.197 27.4748 24.3292Z" fill="black"/>
<path d="M128.173 33.3067C128.173 32.8279 128.173 32.3491 128.155 31.8703C127.947 26.3042 127.147 22.0848 125.757 19.1521C124.506 16.5187 123.116 15.6209 121.673 15.4713C120.127 15.3217 118.632 16.0997 117.259 18.6135C115.791 21.3666 114.861 25.4962 114.783 31.4514C114.705 37.6459 115.799 42.9726 117.624 45.5162C119.466 48.0898 121.378 48.3292 123.315 47.4314C124.358 46.9526 125.366 45.995 126.27 44.0499C126.947 42.5835 127.46 40.6683 127.79 37.8554C126.348 37.8554 124.966 37.8554 123.585 37.8853C123.498 37.8853 123.394 38.0648 123.341 38.2743C122.638 41.2967 121.021 41.177 120.179 39.1721C119.709 38.0648 119.344 36.6284 119.362 34.3541H128.164C128.164 33.8454 128.181 33.5461 128.173 33.3067ZM119.414 28.2194C119.327 25.0773 120.074 23.0424 121.369 22.803C122.507 22.5935 123.55 25.0773 123.567 28.2194H119.414Z" fill="#CD1622"/>
<path d="M158.732 15.8903C157.481 15.8903 156.456 12.3292 156.456 7.93017C156.456 3.53117 157.472 0 158.732 0C159.983 0 161.009 3.5611 161.009 7.9601C161.009 12.3591 159.983 15.8903 158.732 15.8903ZM158.732 2.06484C157.82 2.06484 157.064 4.72818 157.064 7.93017C157.064 11.1322 157.82 13.7955 158.732 13.7955C159.644 13.7955 160.4 11.1322 160.4 7.93017C160.4 4.72818 159.644 2.06484 158.732 2.06484Z" fill="black"/>
<path d="M159.497 9.66586C159.436 8.91773 159.349 8.40901 159.184 8.19953V8.1696C159.384 7.9302 159.592 7.212 159.592 6.22447C159.592 5.47634 159.514 4.93768 159.375 4.54866C159.21 4.09978 158.967 3.92023 158.628 3.92023C158.35 3.92023 158.098 3.98008 157.933 4.09978V11.9701H158.454V8.82796H158.611C158.828 8.82796 158.923 9.09728 158.993 10.1147C159.062 11.1023 159.115 11.7307 159.149 11.9701H159.688C159.636 11.611 159.575 10.5636 159.497 9.66586ZM158.671 7.51125H158.463V5.32671C158.498 5.29679 158.576 5.26686 158.698 5.26686C158.941 5.26686 159.08 5.65589 159.08 6.37409C159.089 7.06237 158.932 7.51125 158.671 7.51125Z" fill="black"/>
</g>
<defs>
<clipPath id="clip0_221_511">
<rect width="161" height="48" fill="white"/>
</clipPath>
</defs>
</svg>
